<svg width="300" height="172" viewBox="0 0 300 172" fill="none" xmlns="http://www.w3.org/2000/svg">
<g clip-path="url(#clip0_19:679)">
<path d="M148.584 163.754C147.023 162.936 145.463 162.12 143.896 161.319C143.808 161.273 143.722 161.221 143.64 161.166C143.326 160.963 143.248 160.945 143.118 161.04C142.968 161.153 142.966 161.281 143.034 161.661C143.052 161.757 143.068 161.853 143.077 161.945C143.152 162.678 143.244 163.411 143.335 164.143H149.325L148.584 163.754Z" fill="#EF3B24"/>
<path d="M144.402 169.205L144.574 169.095C144.823 168.947 145.06 168.781 145.286 168.599C145.44 168.452 145.641 168.363 145.854 168.348C145.882 168.348 145.909 168.35 145.936 168.353C146.219 168.393 146.401 168.615 146.527 168.804C147.137 169.717 147.771 170.63 148.476 171.62C148.57 171.735 148.677 171.837 148.796 171.925L148.819 171.945L148.85 171.931C148.943 171.892 149.033 171.847 149.119 171.794C149.747 171.374 150.373 170.947 150.996 170.515C151.409 170.229 151.425 170.217 151.117 169.771L150.641 169.081C150.143 168.357 149.645 167.632 149.129 166.921C149.021 166.772 148.884 166.543 148.937 166.278C148.99 166.012 149.201 165.858 149.357 165.762C149.636 165.591 149.903 165.399 150.17 165.208L150.334 165.092C150.495 164.977 150.53 164.897 150.529 164.876C150.528 164.854 150.494 164.779 150.335 164.673C150.256 164.622 150.174 164.576 150.09 164.536L148.588 163.752C147.027 162.934 145.467 162.118 143.9 161.317C143.812 161.271 143.726 161.219 143.644 161.164C143.33 160.961 143.252 160.943 143.122 161.038C142.973 161.151 142.971 161.279 143.038 161.659C143.056 161.755 143.072 161.851 143.081 161.943C143.173 162.856 143.285 163.757 143.401 164.664L143.612 166.396C143.714 167.281 143.824 168.166 143.955 169.048C143.98 169.217 144.034 169.297 144.072 169.315C144.109 169.332 144.215 169.326 144.402 169.205Z" fill="#EF3B24"/>
<path d="M168.638 135.733H100.666C99.6093 135.733 98.5963 136.152 97.8494 136.897C97.1025 137.642 96.6829 138.653 96.6829 139.707V160.172C96.6832 161.226 97.1029 162.236 97.8498 162.981C98.5967 163.726 99.6095 164.144 100.666 164.144H142.641C142.553 163.434 142.463 162.724 142.392 162.014C142.384 161.939 142.37 161.862 142.355 161.783C142.291 161.422 142.193 160.875 142.704 160.492C143.241 160.087 143.721 160.402 144.014 160.594C144.077 160.637 144.143 160.677 144.211 160.714C145.78 161.518 147.343 162.337 148.904 163.148L150.399 163.929C150.507 163.982 150.612 164.041 150.713 164.106C150.733 164.119 150.743 164.132 150.761 164.144H168.638C169.694 164.144 170.707 163.726 171.454 162.981C172.201 162.236 172.62 161.226 172.621 160.172V139.707C172.621 139.185 172.518 138.668 172.318 138.186C172.117 137.704 171.824 137.266 171.454 136.897C171.084 136.528 170.645 136.235 170.162 136.036C169.679 135.836 169.161 135.733 168.638 135.733ZM110.029 141.272C110.053 140.98 110.167 140.703 110.353 140.478C110.648 140.141 111.027 140.04 111.458 140.122C111.568 140.147 111.677 140.18 111.782 140.223L111.803 140.233L112.108 140.36C112.116 140.31 112.122 140.258 112.13 140.209C112.139 140.158 112.153 140.109 112.169 140.061C112.033 140.063 111.897 140.038 111.771 139.987C111.557 139.897 111.383 139.734 111.277 139.528C111.172 139.322 111.143 139.086 111.195 138.861C111.202 138.824 111.22 138.79 111.247 138.764C111.275 138.738 111.309 138.722 111.347 138.718C111.473 138.689 111.603 138.686 111.73 138.709C111.857 138.731 111.979 138.778 112.087 138.848C112.196 138.917 112.29 139.007 112.364 139.113C112.437 139.219 112.489 139.338 112.516 139.464C112.516 139.473 112.516 139.482 112.523 139.5L112.572 139.464C112.729 139.346 112.92 139.282 113.116 139.283C113.136 139.281 113.156 139.283 113.175 139.289C113.194 139.296 113.211 139.305 113.226 139.318C113.241 139.331 113.253 139.347 113.262 139.365C113.271 139.382 113.276 139.402 113.278 139.422C113.279 139.441 113.277 139.461 113.27 139.48C113.263 139.499 113.253 139.516 113.24 139.53C113.226 139.545 113.209 139.556 113.191 139.564C113.173 139.572 113.153 139.576 113.133 139.576C112.806 139.584 112.614 139.772 112.495 140.053C112.447 140.166 112.417 140.288 112.379 140.407L112.395 140.414C112.405 140.409 112.413 140.403 112.422 140.396C113.102 139.817 114.048 140.081 114.325 140.927C114.416 141.226 114.445 141.541 114.411 141.852C114.384 142.246 114.275 142.631 114.091 142.981C113.74 143.645 113.093 143.962 112.314 144.003C111.829 144.037 111.348 143.904 110.951 143.625C110.554 143.345 110.266 142.938 110.136 142.471C110.017 142.083 109.98 141.675 110.029 141.272V141.272ZM114.646 157.378H103.99V141.217H108.856V153.705H114.651L114.646 157.378ZM114.646 152.779H109.781V145.07H114.646V152.779ZM128.723 157.396H123.88V150.859C123.88 150.276 123.723 149.813 123.409 149.47C123.095 149.128 122.675 148.956 122.149 148.956C121.623 148.956 121.185 149.128 120.878 149.47C120.571 149.812 120.418 150.276 120.418 150.859V157.396H115.553V145.065H120.418V146.944C120.805 146.355 121.328 145.868 121.944 145.524C122.579 145.16 123.336 144.978 124.212 144.977C125.628 144.977 126.735 145.451 127.532 146.398C128.329 147.344 128.727 148.627 128.727 150.245L128.723 157.396ZM141.521 147.363L138.609 151.274L141.521 155.04V157.396H137.534L134.489 152.476V157.396H129.623V141.217H134.489V149.678L137.578 145.065H141.521V147.363ZM147.231 157.378H142.366V145.047H147.229V147.321C147.705 146.626 148.325 146.041 149.048 145.605C149.719 145.188 150.494 144.964 151.285 144.96V147.533C150.868 147.649 150.463 147.806 150.076 147.999C149.058 148.515 148.211 149.312 147.635 150.296C147.056 151.279 146.762 152.433 146.762 153.728C146.754 154.602 146.91 155.471 147.222 156.289L147.231 157.378ZM158.691 156.808C158.182 157.679 157.432 158.386 156.53 158.842C155.574 159.303 154.526 159.543 153.465 159.543C152.403 159.543 151.355 159.303 150.399 158.842C149.498 158.386 148.747 157.679 148.238 156.808C147.723 155.932 147.461 154.895 147.461 153.725C147.461 152.556 147.723 151.518 148.239 150.642C148.749 149.773 149.499 149.068 150.399 148.613C151.355 148.152 152.403 147.912 153.465 147.912C154.526 147.912 155.574 148.152 156.53 148.613C157.43 149.069 158.18 149.773 158.691 150.642C159.207 151.519 159.469 152.556 159.469 153.725C159.469 154.895 159.203 155.932 158.687 156.808H158.691ZM164.628 157.32H162.785C161.458 157.32 160.395 157.059 159.587 156.542C159.973 155.654 160.167 154.694 160.156 153.725C160.156 152.432 159.862 151.278 159.284 150.294C158.708 149.31 157.861 148.513 156.843 147.996C156.623 147.886 156.396 147.787 156.165 147.701V144.991H157.702V142.014H162.567V144.988H164.583V149.032H162.567V152.361C162.567 152.653 162.635 152.865 162.77 152.995C162.906 153.126 163.136 153.191 163.461 153.192H164.622L164.628 157.32Z" fill="#EF3B24"/>
<path d="M155.934 153.497C155.83 153.282 155.75 153.054 155.697 152.821C155.672 152.678 155.601 152.547 155.494 152.448C155.435 152.394 155.372 152.341 155.311 152.289C155.249 152.241 155.201 152.178 155.171 152.105C155.141 152.033 155.13 151.954 155.14 151.876C155.154 151.764 155.185 151.656 155.205 151.545C155.241 151.417 155.234 151.281 155.187 151.157C155.18 151.129 155.166 151.103 155.146 151.081C155.126 151.059 155.102 151.043 155.074 151.033C155.047 151.023 155.017 151.019 154.988 151.023C154.959 151.027 154.931 151.039 154.907 151.056C154.858 151.081 154.806 151.112 154.76 151.136C154.737 151.15 154.71 151.158 154.683 151.161C154.656 151.164 154.629 151.162 154.603 151.153C154.577 151.145 154.553 151.132 154.532 151.114C154.512 151.095 154.496 151.073 154.484 151.049C154.452 150.994 154.426 150.935 154.392 150.882C154.379 150.855 154.36 150.83 154.337 150.81C154.313 150.791 154.286 150.776 154.256 150.768C154.227 150.76 154.196 150.758 154.166 150.762C154.136 150.767 154.107 150.777 154.081 150.794C154.023 150.824 153.967 150.858 153.913 150.895C153.862 150.932 153.8 150.95 153.738 150.948C153.675 150.946 153.615 150.924 153.566 150.884C153.516 150.848 153.465 150.808 153.418 150.771C153.351 150.718 153.27 150.688 153.185 150.684C153.077 150.68 152.968 150.69 152.863 150.716C152.558 150.792 152.346 150.979 152.312 151.317C152.304 151.405 152.286 151.491 152.258 151.574C152.245 151.618 152.221 151.659 152.189 151.692C152.156 151.724 152.116 151.749 152.072 151.762C152.003 151.785 151.938 151.819 151.881 151.863C151.812 151.914 151.737 151.957 151.658 151.99C151.561 152.026 151.468 152.074 151.383 152.134C151.18 152.292 151.129 152.499 151.306 152.698C151.365 152.762 151.401 152.844 151.408 152.931C151.416 153.047 151.402 153.164 151.366 153.274C151.304 153.467 151.217 153.65 151.208 153.859C151.186 154.016 151.135 154.166 151.059 154.305C150.994 154.437 150.949 154.579 150.928 154.726C150.925 154.783 150.945 154.84 150.982 154.884C151.02 154.927 151.074 154.955 151.131 154.96C151.159 154.963 151.187 154.961 151.214 154.952C151.241 154.943 151.265 154.928 151.286 154.909C151.306 154.889 151.322 154.866 151.332 154.839C151.342 154.813 151.346 154.785 151.344 154.757C151.342 154.694 151.337 154.63 151.328 154.567C151.32 154.53 151.321 154.492 151.331 154.455C151.34 154.418 151.358 154.384 151.384 154.355C151.409 154.326 151.441 154.304 151.476 154.29C151.511 154.276 151.55 154.27 151.588 154.273C151.663 154.276 151.737 154.296 151.802 154.333C151.833 154.349 151.86 154.373 151.88 154.402C151.899 154.431 151.912 154.465 151.915 154.499C151.924 154.563 151.922 154.627 151.909 154.689C151.87 154.864 151.82 155.037 151.76 155.205C151.695 155.384 151.67 155.574 151.685 155.762C151.697 155.863 151.744 155.956 151.817 156.026C151.873 156.082 151.918 156.073 151.948 156C151.948 155.993 151.948 155.986 151.956 155.977C151.961 155.954 151.972 155.933 151.988 155.915C152.004 155.898 152.023 155.884 152.046 155.876C152.068 155.867 152.092 155.864 152.115 155.867C152.139 155.87 152.161 155.879 152.181 155.892C152.251 155.927 152.308 155.985 152.341 156.057C152.373 156.129 152.38 156.21 152.359 156.286C152.334 156.386 152.315 156.488 152.302 156.59C152.29 156.665 152.308 156.741 152.351 156.802C152.36 156.816 152.372 156.829 152.386 156.838C152.4 156.848 152.415 156.855 152.432 156.858C152.448 156.861 152.465 156.861 152.482 156.857C152.498 156.853 152.514 156.846 152.527 156.836C152.566 156.81 152.596 156.773 152.612 156.729C152.629 156.686 152.632 156.638 152.62 156.593C152.606 156.506 152.587 156.419 152.563 156.333C152.542 156.251 152.544 156.165 152.569 156.084C152.594 156.002 152.641 155.93 152.704 155.873C152.743 155.83 152.795 155.802 152.853 155.795C152.903 155.79 152.953 155.804 152.993 155.834C153.033 155.863 153.061 155.907 153.071 155.956C153.113 156.081 153.173 156.199 153.25 156.306C153.336 156.421 153.389 156.557 153.406 156.699C153.422 156.842 153.401 156.986 153.344 157.118C153.293 157.229 153.254 157.346 153.228 157.466C153.216 157.516 153.218 157.569 153.233 157.618C153.248 157.668 153.277 157.713 153.315 157.748C153.353 157.783 153.4 157.808 153.451 157.819C153.502 157.83 153.554 157.828 153.604 157.812C153.64 157.802 153.674 157.785 153.703 157.761C153.732 157.737 153.756 157.708 153.773 157.675C153.79 157.641 153.801 157.605 153.803 157.568C153.806 157.53 153.801 157.493 153.789 157.457C153.752 157.334 153.707 157.214 153.667 157.091C153.59 156.893 153.59 156.674 153.667 156.477C153.776 156.231 153.882 155.985 154.007 155.746C154.028 155.705 154.056 155.668 154.091 155.638C154.103 155.625 154.12 155.617 154.137 155.615C154.155 155.614 154.172 155.619 154.187 155.629C154.205 155.641 154.223 155.654 154.24 155.668C154.353 155.766 154.443 155.886 154.504 156.021C154.566 156.156 154.598 156.303 154.598 156.451C154.599 156.594 154.575 156.736 154.527 156.871C154.501 156.946 154.5 157.027 154.525 157.102C154.549 157.178 154.598 157.243 154.663 157.288C154.683 157.305 154.706 157.317 154.73 157.325C154.755 157.332 154.781 157.334 154.806 157.331C154.832 157.328 154.856 157.319 154.878 157.306C154.9 157.293 154.919 157.275 154.934 157.254C154.953 157.227 154.967 157.197 154.974 157.165C154.982 157.133 154.983 157.1 154.978 157.068C154.954 156.975 154.919 156.885 154.876 156.8C154.786 156.579 154.756 156.339 154.789 156.103C154.817 155.944 154.836 155.783 154.844 155.621C154.848 155.499 154.872 155.378 154.916 155.264C154.937 155.21 154.976 155.164 155.027 155.135C155.079 155.106 155.138 155.095 155.196 155.105C155.241 155.111 155.284 155.13 155.318 155.161C155.352 155.191 155.376 155.231 155.386 155.275C155.411 155.368 155.416 155.464 155.401 155.558C155.384 155.628 155.379 155.7 155.384 155.772C155.389 155.801 155.403 155.828 155.425 155.848C155.446 155.869 155.473 155.883 155.502 155.887C155.532 155.896 155.564 155.895 155.594 155.884C155.623 155.873 155.648 155.853 155.665 155.826C155.706 155.765 155.722 155.69 155.711 155.617C155.69 155.532 155.655 155.451 155.609 155.376C155.562 155.294 155.527 155.205 155.507 155.113C155.489 154.966 155.482 154.819 155.486 154.671C155.487 154.615 155.507 154.56 155.544 154.518C155.599 154.455 155.63 154.452 155.697 154.504L155.794 154.581C155.804 154.588 155.816 154.597 155.83 154.589C155.843 154.581 155.839 154.562 155.83 154.549C155.821 154.536 155.812 154.509 155.803 154.488C155.786 154.449 155.768 154.41 155.75 154.371C155.741 154.349 155.741 154.332 155.781 154.34C155.764 154.325 155.744 154.323 155.746 154.305C155.745 154.206 155.751 154.108 155.764 154.011C155.767 153.993 155.777 153.977 155.791 153.967C155.806 153.957 155.824 153.953 155.842 153.956C155.859 153.956 155.876 153.956 155.894 153.962C155.988 153.968 156.017 153.941 156.017 153.845C156.018 153.83 156.018 153.814 156.017 153.799C156.003 153.695 155.976 153.593 155.934 153.497V153.497Z" fill="#EF3B24"/>
<path d="M2.59889 149.647C3.15955 149.328 3.79632 149.168 4.44128 149.182C5.12991 149.175 5.80772 149.353 6.40264 149.699C6.9905 150.046 7.46975 150.549 7.78647 151.153C8.13071 151.826 8.3029 152.574 8.28774 153.33C8.30014 154.088 8.12813 154.837 7.78647 155.514C7.47588 156.131 6.99745 156.649 6.40589 157.007C5.81433 157.366 5.13351 157.552 4.44128 157.543C3.80032 157.556 3.16778 157.395 2.61109 157.078C2.11737 156.797 1.70292 156.395 1.40622 155.911V161.239H0.0589905V149.318H1.40622V150.809C1.69518 150.324 2.10638 149.924 2.59889 149.647V149.647ZM6.5399 151.735C6.31323 151.303 5.96706 150.945 5.54245 150.703C5.12043 150.466 4.64372 150.344 4.15964 150.348C3.67885 150.344 3.20588 150.469 2.79004 150.71C2.36349 150.959 2.01547 151.322 1.78547 151.759C1.5256 152.246 1.39505 152.792 1.40622 153.344C1.39376 153.902 1.5243 154.453 1.78547 154.947C2.01578 155.383 2.36373 155.746 2.79004 155.996C3.20606 156.236 3.67904 156.36 4.15964 156.356C4.64452 156.361 5.12197 156.237 5.54245 155.996C5.96758 155.747 6.31342 155.383 6.5399 154.947C6.79893 154.448 6.92762 153.892 6.91408 153.33C6.92711 152.775 6.79834 152.226 6.5399 151.735V151.735Z" fill="#EF3B24"/>
<path d="M11.8322 157.02C11.2177 156.68 10.7146 156.171 10.3833 155.552C10.0212 154.873 9.83954 154.113 9.85558 153.344C9.84043 152.579 10.0273 151.823 10.3975 151.153C10.7375 150.536 11.2477 150.029 11.8678 149.692C12.5114 149.358 13.2264 149.183 13.9522 149.183C14.6779 149.183 15.3929 149.358 16.0365 149.692C16.6564 150.027 17.1685 150.531 17.5139 151.144C17.8835 151.817 18.0693 152.575 18.0528 153.342C18.069 154.114 17.878 154.877 17.4997 155.55C17.1448 156.169 16.6245 156.677 15.9969 157.018C15.3516 157.366 14.6278 157.544 13.8942 157.536C13.1736 157.546 12.4629 157.368 11.8322 157.02V157.02ZM15.2567 156.017C15.689 155.783 16.0458 155.431 16.2857 155.003C16.5459 154.55 16.6761 153.999 16.6761 153.348C16.6761 152.7 16.55 152.148 16.2928 151.697C16.0629 151.268 15.7128 150.915 15.2851 150.682C14.8693 150.463 14.4062 150.349 13.9359 150.349C13.4656 150.349 13.0025 150.463 12.5866 150.682C12.1646 150.916 11.8214 151.269 11.6004 151.697C11.3553 152.148 11.2323 152.7 11.2323 153.348C11.2323 153.996 11.3512 154.565 11.5932 155.017C11.8095 155.443 12.1478 155.796 12.5653 156.031C12.9727 156.253 13.4301 156.367 13.8942 156.363C14.3706 156.362 14.8393 156.242 15.2567 156.013V156.017Z" fill="#EF3B24"/>
<path d="M30.9231 149.318L28.3944 157.408H27.0035L25.0492 150.986L23.0991 157.408H21.7081L19.1611 149.318H20.5388L22.4026 156.108L24.4138 149.318H25.7905L27.7579 156.119L29.5942 149.318H30.9231Z" fill="#EF3B24"/>
<path d="M39.9073 153.861H33.4264C33.4773 154.658 33.7477 155.282 34.247 155.729C34.743 156.176 35.3917 156.416 36.0599 156.4C36.6415 156.4 37.1295 156.266 37.5189 155.995C37.902 155.73 38.1897 155.35 38.3395 154.909H39.7884C39.5822 155.67 39.1238 156.338 38.4879 156.805C37.8372 157.293 37.0278 157.537 36.0599 157.537C35.3385 157.549 34.6267 157.37 33.9968 157.019C33.3906 156.675 32.8948 156.166 32.5672 155.551C32.2118 154.87 32.0338 154.111 32.0497 153.343C32.0338 152.58 32.2063 151.825 32.552 151.145C32.8715 150.533 33.3639 150.027 33.9684 149.691C34.6092 149.343 35.3303 149.168 36.0599 149.184C36.773 149.171 37.477 149.346 38.1005 149.691C38.6801 150.011 39.1554 150.49 39.4701 151.071C39.7966 151.681 39.9617 152.364 39.95 153.055C39.95 153.305 39.9358 153.578 39.9073 153.861ZM38.2205 151.448C38 151.084 37.6787 150.792 37.2952 150.606C36.8926 150.411 36.4496 150.312 36.0019 150.318C35.3598 150.303 34.7366 150.536 34.2612 150.966C33.7867 151.401 33.5132 152.002 33.4407 152.769H38.5601C38.5733 152.306 38.4556 151.848 38.2205 151.448V151.448Z" fill="#EF3B24"/>
<path d="M44.3832 149.551C44.8204 149.296 45.3549 149.168 45.9866 149.168V150.556H45.6328C44.1225 150.556 43.3674 151.372 43.3674 153.005V157.405H42.0202V149.318H43.3674V150.637C43.592 150.183 43.9452 149.806 44.3832 149.551V149.551Z" fill="#EF3B24"/>
<path d="M55.1915 153.861H48.7106C48.7614 154.658 49.0319 155.282 49.5301 155.729C50.0265 156.176 50.6756 156.416 51.344 156.4C51.9256 156.4 52.412 156.265 52.8031 155.995C53.1856 155.729 53.4731 155.349 53.6236 154.909H55.0715C54.8662 155.67 54.4076 156.339 53.771 156.805C53.1217 157.291 52.3137 157.534 51.3471 157.534C50.6257 157.547 49.9139 157.368 49.284 157.017C48.6772 156.673 48.181 156.164 47.8534 155.549C47.4988 154.868 47.3212 154.109 47.3369 153.341C47.321 152.578 47.4935 151.823 47.8392 151.143C48.1584 150.53 48.6509 150.025 49.2556 149.689C49.8964 149.341 50.6175 149.166 51.3471 149.182C52.0602 149.169 52.7642 149.344 53.3877 149.689C53.9673 150.009 54.4426 150.488 54.7573 151.069C55.0837 151.679 55.2489 152.362 55.2372 153.053C55.2342 153.304 55.2199 153.578 55.1915 153.861ZM53.5036 151.448C53.2838 151.084 52.9627 150.792 52.5794 150.606C52.1767 150.411 51.7338 150.312 51.286 150.318C50.6439 150.303 50.0207 150.535 49.5453 150.966C49.0708 151.401 48.7973 152.002 48.7248 152.769H53.8432C53.8569 152.306 53.7392 151.848 53.5036 151.448V151.448Z" fill="#EF3B24"/>
<path d="M57.3043 151.153C57.6207 150.549 58.1 150.046 58.6882 149.699C59.2877 149.352 59.9704 149.173 60.6637 149.182C61.2801 149.179 61.8873 149.331 62.4299 149.622C62.9405 149.884 63.3701 150.28 63.6724 150.767V146.478H65.0338V157.402H63.6693V155.88C63.3895 156.376 62.9802 156.787 62.4848 157.07C61.9282 157.387 61.2956 157.548 60.6546 157.535C59.9624 157.544 59.2815 157.358 58.69 156.999C58.0984 156.641 57.62 156.123 57.3094 155.506C56.9669 154.829 56.7946 154.08 56.8071 153.322C56.7916 152.569 56.9624 151.824 57.3043 151.153V151.153ZM63.2972 151.749C63.0693 151.316 62.7236 150.956 62.2997 150.71C61.8787 150.473 61.404 150.349 60.9209 150.348C60.4378 150.346 59.9625 150.469 59.5402 150.703C59.1181 150.947 58.7738 151.304 58.5468 151.735C58.2919 152.228 58.1653 152.776 58.1788 153.33C58.1648 153.891 58.2913 154.447 58.5468 154.947C58.7738 155.382 59.1178 155.745 59.5402 155.996C59.9583 156.237 60.4339 156.361 60.9169 156.356C61.4018 156.361 61.8793 156.237 62.2997 155.996C62.7249 155.747 63.0707 155.383 63.2972 154.947C63.5532 154.452 63.6811 153.901 63.6693 153.344C63.6808 152.791 63.5528 152.244 63.2972 151.752V151.749Z" fill="#EF3B24"/>
<path d="M74.4125 149.64C74.9678 149.329 75.596 149.171 76.2326 149.182C76.924 149.173 77.6049 149.352 78.202 149.699C78.7872 150.047 79.2636 150.55 79.5777 151.153C79.9228 151.826 80.0953 152.574 80.08 153.33C80.0926 154.088 79.9202 154.837 79.5777 155.514C79.2674 156.131 78.7891 156.649 78.1975 157.008C77.6058 157.367 76.9249 157.552 76.2326 157.543C75.5886 157.557 74.9525 157.399 74.3902 157.085C73.8936 156.809 73.4817 156.403 73.1985 155.911V157.402H71.8513V146.478H73.1985V150.817C73.4904 150.323 73.9096 149.917 74.4125 149.64V149.64ZM78.3322 151.735C78.1055 151.303 77.7594 150.945 77.3347 150.703C76.9124 150.466 76.4353 150.343 75.9509 150.348C75.4705 150.344 74.9979 150.469 74.5824 150.71C74.1556 150.958 73.8075 151.322 73.5778 151.759C73.3174 152.246 73.1869 152.792 73.1985 153.344C73.1856 153.902 73.3161 154.454 73.5778 154.947C73.8078 155.383 74.1558 155.747 74.5824 155.996C74.9981 156.236 75.4707 156.36 75.9509 156.356C76.4361 156.361 76.9139 156.237 77.3347 155.996C77.7599 155.747 78.1057 155.383 78.3322 154.947C78.5902 154.447 78.7178 153.891 78.7033 153.33C78.7173 152.776 78.5896 152.227 78.3322 151.735V151.735Z" fill="#EF3B24"/>
<path d="M89.1324 149.318L84.2519 161.217H82.8579L84.4542 157.319L81.1853 149.318H82.681L85.2229 155.872L87.7414 149.318H89.1324Z" fill="#EF3B24"/>
<path d="M10.0111 108.653L5.95829 101.319H4.82052V108.653H0.0772705V89.2226H8.03861C9.57393 89.2226 10.8856 89.4914 11.9654 90.026C13.0452 90.5606 13.8546 91.295 14.3934 92.2262C14.9333 93.1749 15.2112 94.2495 15.1987 95.3404C15.2154 96.5812 14.8302 97.7943 14.1006 98.7994C13.3706 99.8138 12.2941 100.533 10.8713 100.958L15.3645 108.653H10.0111ZM4.8256 97.9686H7.77425C8.64155 97.9686 9.29941 97.7566 9.72848 97.3326C10.1576 96.9086 10.3792 96.3081 10.3792 95.5331C10.3792 94.7956 10.1626 94.2144 9.72848 93.7904C9.29432 93.3664 8.64155 93.1523 7.77425 93.1523H4.82052L4.8256 97.9686Z" fill="#EF3B24"/>
<path d="M36.6699 93.0194V96.9451H43.0248V100.597H36.6699V104.857H43.8585V108.649H31.9267V89.2226H43.8585V93.0194H36.6699Z" fill="#EF3B24"/>
<path d="M63.9144 108.155C62.8406 107.734 61.9045 107.024 61.2098 106.105C60.5319 105.2 60.1767 104.111 60.1442 102.838H65.1914C65.2667 103.559 65.5158 104.108 65.9428 104.485C66.3699 104.862 66.921 105.052 67.6042 105.052C68.3089 105.052 68.865 104.892 69.2697 104.567C69.6744 104.243 69.8798 103.798 69.8798 103.225C69.8861 103.004 69.8463 102.784 69.763 102.58C69.6797 102.375 69.5546 102.189 69.3958 102.035C69.0486 101.708 68.6449 101.446 68.2041 101.261C67.5467 100.995 66.8749 100.764 66.1919 100.572C65.1366 100.262 64.1061 99.8738 63.1091 99.4101C62.2983 99.0081 61.595 98.4194 61.0572 97.6927C60.4831 96.938 60.1967 95.951 60.1981 94.7317C60.1981 92.9227 60.8542 91.5067 62.1665 90.4835C63.4789 89.4603 65.1898 88.9484 67.2992 88.9477C69.446 88.9477 71.1745 89.4596 72.4848 90.4835C73.795 91.5073 74.4983 92.9326 74.5946 94.7591H69.4629C69.4277 94.1322 69.1965 93.6389 68.7695 93.2791C68.3424 92.9194 67.7971 92.7395 67.1335 92.7395C66.5593 92.7395 66.097 92.8913 65.7466 93.1949C65.3958 93.4993 65.2189 93.9395 65.2189 94.5136C65.2189 95.1405 65.5151 95.6295 66.1076 95.9805C66.7 96.3314 67.6246 96.7098 68.8813 97.1156C69.9277 97.4551 70.951 97.8617 71.9449 98.3328C72.7461 98.731 73.4447 99.3079 73.9865 100.019C74.56 100.756 74.8464 101.706 74.8457 102.869C74.8573 103.934 74.5642 104.981 74.0008 105.886C73.4334 106.791 72.6146 107.51 71.5442 108.045C70.4739 108.579 69.207 108.845 67.7435 108.844C66.3211 108.844 65.042 108.617 63.9144 108.155Z" fill="#EF3B24"/>
<path d="M96.26 93.0194V96.9451H102.614V100.597H96.26V104.857H103.449V108.649H91.5167V89.2226H103.449V93.0194H96.26Z" fill="#EF3B24"/>
<path d="M132.408 105.22H125.14L123.977 108.653H119.01L126.059 89.2226H131.549L138.596 108.653H133.576L132.408 105.22ZM131.188 101.569L128.774 94.4548L126.391 101.569H131.188Z" fill="#EF3B24"/>
<path d="M164.429 108.653L160.376 101.319H159.238V108.653H154.495V89.2226H162.456C163.991 89.2226 165.303 89.4914 166.383 90.026C167.463 90.5606 168.276 91.295 168.811 92.2262C169.351 93.1749 169.629 94.2495 169.616 95.3404C169.633 96.5812 169.248 97.7943 168.518 98.7994C167.788 99.8138 166.712 100.533 165.289 100.958L169.782 108.653H164.429ZM159.238 97.9686H162.187C163.054 97.9686 163.712 97.7566 164.141 97.3326C164.57 96.9086 164.791 96.3081 164.791 95.5331C164.791 94.7956 164.575 94.2144 164.141 93.7904C163.707 93.3664 163.054 93.1523 162.187 93.1523H159.238V97.9686Z" fill="#EF3B24"/>
<path d="M186.781 93.7762C187.586 92.2997 188.794 91.0808 190.264 90.2603C191.755 89.4204 193.442 89.0004 195.325 89.0004C197.637 89.0004 199.616 89.6091 201.263 90.8263C202.91 92.0436 204.011 93.7041 204.565 95.808H199.349C198.998 95.0381 198.423 94.3918 197.698 93.9537C196.963 93.5229 196.123 93.3028 195.27 93.3177C193.812 93.3177 192.628 93.8249 191.72 94.8392C190.811 95.8536 190.359 97.2099 190.361 98.9079C190.361 100.607 190.814 101.964 191.72 102.977C192.625 103.99 193.809 104.497 195.27 104.498C196.123 104.512 196.963 104.292 197.698 103.862C198.423 103.424 198.998 102.778 199.349 102.008H204.565C204.009 104.11 202.908 105.767 201.263 106.978C199.618 108.19 197.639 108.794 195.325 108.791C193.439 108.791 191.752 108.371 190.264 107.532C188.796 106.715 187.589 105.501 186.781 104.031C185.95 102.535 185.534 100.829 185.532 98.91C185.53 96.9914 185.946 95.2802 186.781 93.7762Z" fill="#EF3B24"/>
<path d="M238.11 89.2226V108.653H233.364V100.654H225.983V108.653H221.241V89.2226H225.983V96.8305H233.364V89.2226H238.11Z" fill="#EF3B24"/>
<path d="M166.555 13.0501C165.034 11.5955 164.274 9.78445 164.275 7.61704C164.276 5.44963 165.036 3.63793 166.555 2.18195C168.075 0.727316 169.984 0 172.28 0C174.577 0 176.485 0.727316 178.006 2.18195C179.527 3.63861 180.288 5.45031 180.288 7.61704C180.289 9.78377 179.528 11.5948 178.006 13.0501C176.484 14.5061 174.576 15.2341 172.28 15.2341C169.984 15.2341 168.076 14.5061 166.555 13.0501ZM178.706 21.3681V72.8219H165.669V21.364L178.706 21.3681Z" fill="#EF3B24"/>
<path d="M232.428 26.4258C236.213 30.296 238.106 35.6987 238.107 42.6337V72.8219H225.074V44.3998C225.074 40.3111 224.049 37.1665 221.999 34.9659C219.949 32.7654 217.158 31.6682 213.624 31.6742C210.026 31.6742 207.187 32.7728 205.106 34.97C203.025 37.1672 201.985 40.3118 201.988 44.4038V72.8219H188.946V21.364H201.983V27.7729C203.72 25.5413 205.94 23.7918 208.641 22.5245C211.342 21.2572 214.305 20.6222 217.531 20.6194C223.676 20.6194 228.642 22.5549 232.428 26.4258Z" fill="#EF3B24"/>
<path d="M279.984 22.8034C282.899 24.321 285.195 26.2868 286.872 28.7011V21.364H300V73.1932C300 77.9608 299.038 82.2182 297.113 85.9653C295.189 89.7125 292.304 92.6843 288.459 94.8808C284.608 97.08 279.953 98.1792 274.493 98.1786C267.167 98.1786 261.162 96.4758 256.478 93.0701C251.794 89.6645 249.14 85.0203 248.517 79.1375H261.46C262.143 81.4909 263.616 83.3644 265.881 84.7582C268.146 86.152 270.891 86.8485 274.117 86.8479C277.903 86.8479 280.974 85.7175 283.332 83.4568C285.69 81.196 286.87 77.7748 286.872 73.1932V65.2049C285.195 67.6205 282.884 69.6333 279.937 71.2435C276.99 72.8537 273.622 73.6584 269.832 73.6578C265.487 73.6578 261.514 72.5419 257.916 70.3103C254.317 68.0786 251.478 64.9361 249.397 60.8826C247.317 56.825 246.278 52.1652 246.28 46.9033C246.28 41.7022 247.319 37.0891 249.397 33.064C251.476 29.0389 254.299 25.9426 257.869 23.7752C261.438 21.6112 265.426 20.5292 269.832 20.5292C273.68 20.5285 277.064 21.2866 279.984 22.8034ZM285.009 38.9657C283.766 36.7056 282.091 34.9714 279.984 33.7629C277.918 32.5688 275.572 31.9442 273.185 31.9532C270.832 31.9357 268.517 32.5453 266.48 33.7193C264.432 34.896 262.772 36.6137 261.498 38.8724C260.224 41.1311 259.587 43.8094 259.586 46.9073C259.586 50.0053 260.223 52.7147 261.498 55.0356C262.772 57.3565 264.447 59.1368 266.523 60.3764C268.528 61.5945 270.832 62.2375 273.18 62.2347C275.567 62.2437 277.914 61.618 279.979 60.422C282.089 59.2149 283.764 57.4813 285.004 55.2213C286.243 52.9612 286.865 50.2518 286.867 47.093C286.871 43.9355 286.251 41.2264 285.009 38.9657Z" fill="#EF3B24"/>
<path d="M19.6003 22.9424C22.2989 21.3965 25.3865 20.6222 28.8631 20.6194V34.2751H25.4193C21.3231 34.2751 18.2345 35.2348 16.1535 37.154C14.0725 39.0732 13.0333 42.417 13.0361 47.1853V72.8219H0V21.364H13.0371V29.3523C14.7127 26.6277 16.9005 24.491 19.6003 22.9424Z" fill="#EF3B24"/>
<path d="M45.5301 70.36C41.5566 68.1635 38.4385 65.0527 36.1758 61.0276C33.9131 57.0025 32.7794 52.3573 32.7747 47.092C32.7747 41.83 33.9392 37.1858 36.2683 33.1593C38.5974 29.1329 41.7786 26.0221 45.8118 23.827C49.8429 21.6285 54.3428 20.5295 59.3115 20.5302C64.2801 20.5309 68.78 21.6298 72.8112 23.827C76.8457 26.0262 80.0269 29.137 82.3546 33.1593C84.6823 37.1817 85.8455 41.8259 85.8442 47.092C85.8442 52.358 84.6498 57.0022 82.261 61.0246C79.8723 65.047 76.6451 68.1578 72.5793 70.357C68.5122 72.5562 63.9656 73.6554 58.9393 73.6547C53.9727 73.6568 49.503 72.5585 45.5301 70.36ZM65.5972 60.6087C67.6748 59.4624 69.3355 57.7437 70.5793 55.4526C71.8232 53.1614 72.4444 50.3745 72.4431 47.092C72.4431 42.2013 71.1552 38.4396 68.5793 35.8069C66.0035 33.1742 62.8536 31.8586 59.1295 31.8599C55.4054 31.8599 52.2873 33.1756 49.7751 35.8069C47.263 38.4382 46.0056 42.1999 46.0029 47.092C46.0029 51.9847 47.2288 55.7464 49.6806 58.377C52.1324 61.0077 55.221 62.324 58.9464 62.326C61.2742 62.3317 63.5644 61.7403 65.5972 60.6087V60.6087Z" fill="#EF3B24"/>
<path d="M156.112 32.0456V21.3641H144.567V8.63855H131.439V21.3641H108.447V8.63855H95.3205V21.3641H89.171V32.0456H95.3164V56.8453C95.3164 67.4971 100.809 72.8226 111.795 72.8219H119.988V61.8605H113.938C111.951 61.8605 110.539 61.4736 109.701 60.7C108.863 59.9264 108.444 58.6722 108.443 56.9376V32.0456H131.435V56.8453C131.435 67.4971 136.929 72.8226 147.915 72.8219H156.108V61.8605H150.057C148.071 61.8605 146.658 61.4736 145.821 60.7C144.983 59.9264 144.564 58.6722 144.563 56.9376V32.0456H156.112Z" fill="#EF3B24"/>
</g>
<defs>
<clipPath id="clip0_19:679">
<rect width="300" height="171.945" fill="white"/>
</clipPath>
</defs>
</svg>
