<svg width="300" height="110" viewBox="0 0 300 110" fill="none" xmlns="http://www.w3.org/2000/svg">
<g clip-path="url(#clip0_807_788)">
<path d="M10.0111 109.543L5.95829 102.209H4.82052V109.543H0.0772705V90.1124H8.03861C9.57393 90.1124 10.8856 90.3812 11.9654 90.9158C13.0452 91.4504 13.8546 92.1848 14.3934 93.116C14.9333 94.0647 15.2112 95.1393 15.1987 96.2302C15.2154 97.4711 14.8302 98.6842 14.1006 99.6893C13.3706 100.704 12.2941 101.423 10.8713 101.848L15.3645 109.543H10.0111ZM4.8256 98.8585H7.77425C8.64155 98.8585 9.29941 98.6465 9.72848 98.2225C10.1576 97.7984 10.3792 97.1979 10.3792 96.4229C10.3792 95.6855 10.1626 95.1042 9.72848 94.6802C9.29432 94.2562 8.64155 94.0422 7.77425 94.0422H4.82052L4.8256 98.8585Z" fill="white"/>
<path d="M36.6699 93.9093V97.835H43.0247V101.487H36.6699V105.747H43.8585V109.539H31.9266V90.1124H43.8585V93.9093H36.6699Z" fill="white"/>
<path d="M63.9144 109.045C62.8405 108.624 61.9045 107.914 61.2097 106.995C60.5319 106.09 60.1767 105.001 60.1442 103.728H65.1914C65.2667 104.449 65.5158 104.998 65.9428 105.375C66.3699 105.752 66.921 105.942 67.6042 105.942C68.3089 105.942 68.865 105.782 69.2697 105.457C69.6744 105.132 69.8798 104.688 69.8798 104.115C69.8861 103.894 69.8463 103.674 69.763 103.469C69.6797 103.265 69.5546 103.079 69.3958 102.925C69.0486 102.598 68.6448 102.335 68.2041 102.151C67.5466 101.884 66.8749 101.654 66.1919 101.461C65.1366 101.152 64.106 100.764 63.1091 100.3C62.2983 99.8979 61.595 99.3093 61.0572 98.5826C60.4831 97.8279 60.1967 96.8409 60.1981 95.6216C60.1981 93.8126 60.8542 92.3965 62.1665 91.3733C63.4788 90.3501 65.1897 89.8382 67.2992 89.8375C69.4459 89.8375 71.1745 90.3495 72.4847 91.3733C73.795 92.3972 74.4983 93.8224 74.5946 95.649H69.4629C69.4276 95.0221 69.1965 94.5287 68.7695 94.169C68.3424 93.8092 67.7971 93.6293 67.1335 93.6293C66.5593 93.6293 66.097 93.7811 65.7466 94.0848C65.3958 94.3891 65.2189 94.8293 65.2189 95.4035C65.2189 96.0304 65.5151 96.5193 66.1075 96.8703C66.7 97.2213 67.6246 97.5996 68.8813 98.0054C69.9277 98.3449 70.951 98.7515 71.9448 99.2227C72.7461 99.6208 73.4447 100.198 73.9865 100.909C74.56 101.646 74.8464 102.596 74.8457 103.759C74.8573 104.824 74.5642 105.871 74.0008 106.776C73.4334 107.681 72.6146 108.4 71.5442 108.934C70.4739 109.469 69.207 109.735 67.7435 109.734C66.3211 109.734 65.042 109.507 63.9144 109.045Z" fill="white"/>
<path d="M96.26 93.9093V97.835H102.614V101.487H96.26V105.747H103.449V109.539H91.5167V90.1124H103.449V93.9093H96.26Z" fill="white"/>
<path d="M132.408 106.11H125.14L123.977 109.543H119.01L126.059 90.1124H131.549L138.596 109.543H133.576L132.408 106.11ZM131.188 102.459L128.774 95.3446L126.391 102.459H131.188Z" fill="white"/>
<path d="M164.429 109.543L160.376 102.209H159.238V109.543H154.495V90.1124H162.456C163.991 90.1124 165.303 90.3812 166.383 90.9158C167.463 91.4504 168.276 92.1848 168.811 93.116C169.351 94.0647 169.629 95.1393 169.616 96.2302C169.633 97.4711 169.248 98.6842 168.518 99.6893C167.788 100.704 166.712 101.423 165.289 101.848L169.782 109.543H164.429ZM159.238 98.8585H162.187C163.054 98.8585 163.712 98.6465 164.141 98.2225C164.57 97.7984 164.792 97.1979 164.792 96.4229C164.792 95.6855 164.575 95.1042 164.141 94.6802C163.707 94.2562 163.054 94.0422 162.187 94.0422H159.238V98.8585Z" fill="white"/>
<path d="M186.781 94.6661C187.586 93.1897 188.793 91.9708 190.264 91.1502C191.755 90.3103 193.442 89.8904 195.325 89.8904C197.637 89.8904 199.616 90.499 201.263 91.7163C202.91 92.9335 204.011 94.5941 204.565 96.6979H199.349C198.998 95.9281 198.423 95.2818 197.698 94.8436C196.963 94.4128 196.123 94.1927 195.27 94.2076C193.812 94.2076 192.628 94.7148 191.72 95.7292C190.811 96.7436 190.359 98.0998 190.361 99.7979C190.361 101.497 190.814 102.854 191.72 103.867C192.625 104.88 193.809 105.387 195.27 105.388C196.123 105.402 196.963 105.182 197.698 104.752C198.423 104.314 198.998 103.668 199.349 102.898H204.565C204.009 105 202.908 106.657 201.263 107.868C199.618 109.08 197.639 109.684 195.325 109.681C193.439 109.681 191.752 109.261 190.264 108.422C188.796 107.604 187.589 106.391 186.781 104.921C185.95 103.425 185.534 101.718 185.532 99.7999C185.53 97.8814 185.946 96.1701 186.781 94.6661Z" fill="white"/>
<path d="M238.11 90.1124V109.543H233.364V101.544H225.983V109.543H221.241V90.1124H225.983V97.7203H233.364V90.1124H238.11Z" fill="white"/>
<path d="M166.555 13.94C165.034 12.4854 164.274 10.6743 164.275 8.50693C164.276 6.33952 165.036 4.52783 166.555 3.07184C168.075 1.61721 169.984 0.889893 172.28 0.889893C174.577 0.889893 176.485 1.61721 178.006 3.07184C179.527 4.5285 180.288 6.3402 180.288 8.50693C180.289 10.6737 179.528 12.4847 178.006 13.94C176.484 15.396 174.576 16.124 172.28 16.124C169.984 16.124 168.076 15.396 166.555 13.94ZM178.706 22.258V73.7118H165.669V22.2539L178.706 22.258Z" fill="white"/>
<path d="M232.428 27.3158C236.213 31.186 238.106 36.5886 238.107 43.5237V73.7119H225.074V45.2897C225.074 41.201 224.049 38.0564 221.999 35.8559C219.95 33.6553 217.158 32.5581 213.624 32.5642C210.026 32.5642 207.187 33.6628 205.106 35.86C203.025 38.0571 201.985 41.2017 201.988 45.2938V73.7119H188.946V22.254H201.983V28.6629C203.72 26.4312 205.94 24.6817 208.641 23.4144C211.342 22.1471 214.305 21.5121 217.531 21.5094C223.676 21.5094 228.642 23.4449 232.428 27.3158Z" fill="white"/>
<path d="M279.984 23.6933C282.899 25.2109 285.195 27.1767 286.872 29.591V22.2539H300V74.0831C300 78.8507 299.038 83.1081 297.113 86.8552C295.189 90.6024 292.304 93.5742 288.459 95.7707C284.608 97.9699 279.953 99.0691 274.493 99.0685C267.167 99.0685 261.162 97.3656 256.478 93.96C251.794 90.5544 249.14 85.9102 248.517 80.0274H261.46C262.143 82.3808 263.616 84.2543 265.881 85.6481C268.146 87.0419 270.891 87.7384 274.117 87.7377C277.903 87.7377 280.974 86.6074 283.332 84.3466C285.69 82.0859 286.87 78.6647 286.872 74.0831V66.0948C285.195 68.5104 282.884 70.5232 279.937 72.1334C276.99 73.7436 273.622 74.5483 269.832 74.5477C265.487 74.5477 261.514 73.4318 257.916 71.2002C254.317 68.9685 251.478 65.8259 249.397 61.7725C247.317 57.7149 246.278 53.0551 246.28 47.7932C246.28 42.5921 247.319 37.979 249.397 33.9539C251.476 29.9288 254.299 26.8325 257.869 24.6651C261.438 22.5011 265.426 21.4191 269.832 21.4191C273.68 21.4184 277.064 22.1765 279.984 23.6933ZM285.009 39.8556C283.766 37.5955 282.091 35.8613 279.984 34.6528C277.918 33.4587 275.572 32.8341 273.185 32.8431C270.832 32.8255 268.517 33.4352 266.48 34.6092C264.432 35.7858 262.772 37.5035 261.498 39.7623C260.224 42.021 259.587 44.6993 259.586 47.7972C259.586 50.8952 260.223 53.6046 261.498 55.9255C262.772 58.2464 264.447 60.0267 266.523 61.2663C268.528 62.4844 270.832 63.1274 273.18 63.1246C275.567 63.1336 277.914 62.5079 279.979 61.3119C282.089 60.1048 283.764 58.3712 285.004 56.1111C286.243 53.8511 286.865 51.1417 286.867 47.9829C286.871 44.8254 286.251 42.1163 285.009 39.8556Z" fill="white"/>
<path d="M19.6003 23.8323C22.2989 22.2864 25.3865 21.5121 28.8631 21.5094V35.1651H25.4193C21.3231 35.1651 18.2345 36.1247 16.1535 38.0439C14.0725 39.9632 13.0333 43.3069 13.0361 48.0752V73.7119H0V22.254H13.0371V30.2423C14.7127 27.5176 16.9005 25.381 19.6003 23.8323Z" fill="white"/>
<path d="M45.5301 71.2498C41.5565 69.0533 38.4384 65.9426 36.1758 61.9175C33.9131 57.8924 32.7794 53.2472 32.7747 47.9818C32.7747 42.7198 33.9392 38.0756 36.2683 34.0492C38.5974 30.0227 41.7785 26.9119 45.8117 24.7168C49.8429 22.5183 54.3428 21.4194 59.3114 21.42C64.2801 21.4207 68.78 22.5196 72.8111 24.7168C76.8457 26.916 80.0268 30.0268 82.3546 34.0492C84.6823 38.0716 85.8455 42.7158 85.8441 47.9818C85.8441 53.2478 84.6498 57.892 82.261 61.9144C79.8723 65.9368 76.645 69.0476 72.5793 71.2468C68.5122 73.446 63.9655 74.5452 58.9393 74.5446C53.9727 74.5466 49.503 73.4484 45.5301 71.2498ZM65.5971 61.4985C67.6747 60.3523 69.3355 58.6336 70.5793 56.3424C71.8232 54.0512 72.4444 51.2644 72.4431 47.9818C72.4431 43.0911 71.1551 39.3294 68.5793 36.6967C66.0035 34.0641 62.8535 32.7484 59.1294 32.7497C55.4053 32.7497 52.2872 34.0654 49.7751 36.6967C47.263 39.3281 46.0056 43.0897 46.0029 47.9818C46.0029 52.8745 47.2288 56.6362 49.6805 59.2669C52.1323 61.8975 55.2209 63.2139 58.9464 63.2159C61.2742 63.2215 63.5644 62.6301 65.5971 61.4985V61.4985Z" fill="white"/>
<path d="M156.112 32.9355V22.2539H144.567V9.52844H131.439V22.2539H108.447V9.52844H95.3205V22.2539H89.171V32.9355H95.3164V57.7352C95.3164 68.387 100.809 73.7125 111.795 73.7118H119.988V62.7504H113.938C111.951 62.7504 110.539 62.3635 109.701 61.5899C108.863 60.8162 108.444 59.5621 108.443 57.8275V32.9355H131.435V57.7352C131.435 68.387 136.929 73.7125 147.915 73.7118H156.108V62.7504H150.057C148.071 62.7504 146.658 62.3635 145.821 61.5899C144.983 60.8162 144.564 59.5621 144.563 57.8275V32.9355H156.112Z" fill="white"/>
</g>
<defs>
<clipPath id="clip0_807_788">
<rect width="300" height="109" fill="white" transform="translate(0 0.944946)"/>
</clipPath>
</defs>
</svg>
