<svg width="300" height="109" viewBox="0 0 300 109" fill="none" xmlns="http://www.w3.org/2000/svg">
<g clip-path="url(#clip0_807_467)">
<path d="M10.0111 108.598L5.95829 101.264H4.82052V108.598H0.0772705V89.1675H8.03861C9.57393 89.1675 10.8856 89.4363 11.9654 89.9709C13.0452 90.5055 13.8546 91.2399 14.3934 92.1711C14.9333 93.1198 15.2112 94.1944 15.1987 95.2852C15.2154 96.5261 14.8302 97.7392 14.1006 98.7443C13.3706 99.7587 12.2941 100.478 10.8713 100.903L15.3645 108.598H10.0111ZM4.8256 97.9135H7.77425C8.64155 97.9135 9.29941 97.7015 9.72848 97.2775C10.1576 96.8535 10.3792 96.253 10.3792 95.478C10.3792 94.7405 10.1626 94.1593 9.72848 93.7353C9.29432 93.3112 8.64155 93.0972 7.77425 93.0972H4.82052L4.8256 97.9135Z" fill="#EF3B24"/>
<path d="M36.6699 92.9643V96.89H43.0247V100.542H36.6699V104.802H43.8585V108.594H31.9266V89.1675H43.8585V92.9643H36.6699Z" fill="#EF3B24"/>
<path d="M63.9144 108.1C62.8405 107.679 61.9045 106.969 61.2097 106.05C60.5319 105.145 60.1767 104.056 60.1442 102.783H65.1914C65.2667 103.504 65.5158 104.053 65.9428 104.43C66.3699 104.807 66.921 104.997 67.6042 104.997C68.3089 104.997 68.865 104.837 69.2697 104.512C69.6744 104.188 69.8798 103.743 69.8798 103.17C69.8861 102.949 69.8463 102.729 69.763 102.524C69.6797 102.32 69.5546 102.134 69.3958 101.98C69.0486 101.653 68.6448 101.39 68.2041 101.206C67.5466 100.94 66.8749 100.709 66.1919 100.516C65.1366 100.207 64.106 99.8187 63.1091 99.355C62.2983 98.953 61.595 98.3643 61.0572 97.6376C60.4831 96.8829 60.1967 95.8959 60.1981 94.6766C60.1981 92.8676 60.8542 91.4515 62.1665 90.4284C63.4788 89.4052 65.1897 88.8933 67.2992 88.8926C69.4459 88.8926 71.1745 89.4045 72.4847 90.4284C73.795 91.4522 74.4983 92.8774 74.5946 94.704H69.4629C69.4276 94.0771 69.1965 93.5838 68.7695 93.224C68.3424 92.8642 67.7971 92.6844 67.1335 92.6844C66.5593 92.6844 66.097 92.8362 65.7466 93.1398C65.3958 93.4441 65.2189 93.8844 65.2189 94.4585C65.2189 95.0854 65.5151 95.5744 66.1075 95.9253C66.7 96.2763 67.6246 96.6547 68.8813 97.0604C69.9277 97.4 70.951 97.8066 71.9448 98.2777C72.7461 98.6759 73.4447 99.2528 73.9865 99.9636C74.56 100.701 74.8464 101.651 74.8457 102.814C74.8573 103.879 74.5642 104.926 74.0008 105.831C73.4334 106.736 72.6146 107.455 71.5442 107.989C70.4739 108.524 69.207 108.79 67.7435 108.789C66.3211 108.789 65.042 108.562 63.9144 108.1Z" fill="#EF3B24"/>
<path d="M96.26 92.9643V96.89H102.614V100.542H96.26V104.802H103.449V108.594H91.5167V89.1675H103.449V92.9643H96.26Z" fill="#EF3B24"/>
<path d="M132.408 105.165H125.14L123.977 108.598H119.01L126.059 89.1675H131.549L138.596 108.598H133.576L132.408 105.165ZM131.188 101.514L128.774 94.3997L126.391 101.514H131.188Z" fill="#EF3B24"/>
<path d="M164.429 108.598L160.376 101.264H159.238V108.598H154.495V89.1675H162.456C163.991 89.1675 165.303 89.4363 166.383 89.9709C167.463 90.5055 168.276 91.2399 168.811 92.1711C169.351 93.1198 169.629 94.1944 169.616 95.2852C169.633 96.5261 169.248 97.7392 168.518 98.7443C167.788 99.7587 166.712 100.478 165.289 100.903L169.782 108.598H164.429ZM159.238 97.9135H162.187C163.054 97.9135 163.712 97.7015 164.141 97.2775C164.57 96.8535 164.792 96.253 164.792 95.478C164.792 94.7405 164.575 94.1593 164.141 93.7353C163.707 93.3112 163.054 93.0972 162.187 93.0972H159.238V97.9135Z" fill="#EF3B24"/>
<path d="M186.781 93.721C187.586 92.2446 188.794 91.0257 190.264 90.2052C191.755 89.3653 193.442 88.9453 195.325 88.9453C197.637 88.9453 199.616 89.5539 201.263 90.7712C202.91 91.9885 204.011 93.649 204.565 95.7529H199.349C198.998 94.983 198.423 94.3367 197.698 93.8986C196.963 93.4677 196.123 93.2477 195.27 93.2625C193.812 93.2625 192.628 93.7697 191.72 94.7841C190.812 95.7985 190.359 97.1547 190.361 98.8528C190.361 100.552 190.814 101.908 191.72 102.922C192.625 103.935 193.809 104.442 195.27 104.443C196.123 104.457 196.963 104.237 197.698 103.807C198.423 103.369 198.998 102.722 199.349 101.953H204.565C204.009 104.055 202.908 105.712 201.263 106.923C199.618 108.134 197.639 108.739 195.325 108.736C193.439 108.736 191.752 108.316 190.264 107.477C188.796 106.659 187.589 105.446 186.781 103.975C185.95 102.48 185.534 100.773 185.532 98.8549C185.53 96.9363 185.946 95.225 186.781 93.721Z" fill="#EF3B24"/>
<path d="M238.11 89.1675V108.598H233.364V100.599H225.983V108.598H221.241V89.1675H225.983V96.7754H233.364V89.1675H238.11Z" fill="#EF3B24"/>
<path d="M166.555 12.9951C165.034 11.5404 164.274 9.7294 164.275 7.56199C164.276 5.39458 165.036 3.58288 166.555 2.1269C168.075 0.672263 169.984 -0.0550537 172.28 -0.0550537C174.577 -0.0550537 176.485 0.672263 178.006 2.1269C179.527 3.58356 180.288 5.39525 180.288 7.56199C180.289 9.72872 179.528 11.5397 178.006 12.9951C176.484 14.451 174.576 15.179 172.28 15.179C169.984 15.179 168.076 14.451 166.555 12.9951ZM178.706 21.313V72.7669H165.669V21.309L178.706 21.313Z" fill="#EF3B24"/>
<path d="M232.428 26.3708C236.213 30.241 238.106 35.6437 238.107 42.5787V72.7669H225.074V44.3448C225.074 40.2561 224.049 37.1115 221.999 34.9109C219.95 32.7104 217.158 31.6132 213.624 31.6193C210.026 31.6193 207.187 32.7178 205.106 34.915C203.025 37.1122 201.985 40.2568 201.988 44.3488V72.7669H188.946V21.309H201.983V27.7179C203.72 25.4863 205.94 23.7368 208.641 22.4695C211.342 21.2022 214.305 20.5672 217.531 20.5645C223.676 20.5645 228.642 22.4999 232.428 26.3708Z" fill="#EF3B24"/>
<path d="M279.984 22.7484C282.899 24.2659 285.195 26.2318 286.872 28.646V21.309H300V73.1381C300 77.9057 299.038 82.1631 297.113 85.9103C295.189 89.6574 292.304 92.6293 288.459 94.8257C284.608 97.0249 279.953 98.1242 274.493 98.1235C267.167 98.1235 261.162 96.4207 256.478 93.0151C251.794 89.6094 249.14 84.9652 248.517 79.0824H261.46C262.143 81.4358 263.616 83.3094 265.881 84.7032C268.146 86.0969 270.891 86.7935 274.117 86.7928C277.903 86.7928 280.974 85.6624 283.332 83.4017C285.69 81.141 286.87 77.7198 286.872 73.1381V65.1498C285.195 67.5654 282.884 69.5783 279.937 71.1885C276.99 72.7986 273.622 73.6034 269.832 73.6027C265.487 73.6027 261.514 72.4869 257.916 70.2552C254.317 68.0236 251.478 64.881 249.397 60.8275C247.317 56.77 246.278 52.1102 246.28 46.8482C246.28 41.6471 247.319 37.034 249.397 33.0089C251.476 28.9838 254.299 25.8876 257.869 23.7202C261.438 21.5561 265.426 20.4741 269.832 20.4741C273.68 20.4734 277.064 21.2315 279.984 22.7484ZM285.009 38.9106C283.766 36.6506 282.091 34.9163 279.984 33.7078C277.918 32.5137 275.572 31.8892 273.185 31.8982C270.832 31.8806 268.517 32.4903 266.48 33.6642C264.432 34.8409 262.772 36.5586 261.498 38.8173C260.224 41.076 259.587 43.7543 259.586 46.8523C259.586 49.9502 260.223 52.6596 261.498 54.9806C262.772 57.3015 264.447 59.0817 266.523 60.3213C268.528 61.5394 270.832 62.1824 273.18 62.1797C275.567 62.1886 277.914 61.563 279.979 60.367C282.089 59.1599 283.764 57.4263 285.004 55.1662C286.243 52.9061 286.865 50.1967 286.867 47.0379C286.871 43.8805 286.251 41.1714 285.009 38.9106Z" fill="#EF3B24"/>
<path d="M19.6003 22.8874C22.2989 21.3415 25.3865 20.5672 28.8631 20.5645V34.2202H25.4193C21.3231 34.2202 18.2345 35.1798 16.1535 37.099C14.0725 39.0182 13.0333 42.362 13.0361 47.1303V72.7669H0V21.309H13.0371V29.2973C14.7127 26.5727 16.9005 24.436 19.6003 22.8874Z" fill="#EF3B24"/>
<path d="M45.5301 70.3049C41.5565 68.1084 38.4384 64.9976 36.1758 60.9725C33.9131 56.9474 32.7794 52.3022 32.7747 47.0369C32.7747 41.7749 33.9392 37.1307 36.2683 33.1042C38.5974 29.0778 41.7785 25.967 45.8117 23.7719C49.8429 21.5733 54.3428 20.4744 59.3114 20.4751C64.2801 20.4758 68.78 21.5747 72.8111 23.7719C76.8457 25.9711 80.0268 29.0818 82.3546 33.1042C84.6823 37.1266 85.8455 41.7708 85.8441 47.0369C85.8441 52.3029 84.6498 56.9471 82.261 60.9695C79.8723 64.9919 76.645 68.1027 72.5793 70.3019C68.5122 72.501 63.9655 73.6003 58.9393 73.5996C53.9727 73.6016 49.503 72.5034 45.5301 70.3049ZM65.5971 60.5536C67.6747 59.4073 69.3355 57.6886 70.5793 55.3974C71.8232 53.1063 72.4444 50.3194 72.4431 47.0369C72.4431 42.1461 71.1551 38.3845 68.5793 35.7518C66.0035 33.1191 62.8535 31.8034 59.1294 31.8048C55.4053 31.8048 52.2872 33.1205 49.7751 35.7518C47.263 38.3831 46.0056 42.1448 46.0029 47.0369C46.0029 51.9296 47.2288 55.6913 49.6805 58.3219C52.1323 60.9526 55.2209 62.2689 58.9464 62.2709C61.2742 62.2766 63.5644 61.6852 65.5971 60.5536V60.5536Z" fill="#EF3B24"/>
<path d="M156.112 31.9905V21.309H144.567V8.5835H131.439V21.309H108.447V8.5835H95.3205V21.309H89.171V31.9905H95.3164V56.7903C95.3164 67.442 100.809 72.7676 111.795 72.7669H119.988V61.8054H113.938C111.951 61.8054 110.539 61.4186 109.701 60.6449C108.863 59.8713 108.444 58.6172 108.443 56.8826V31.9905H131.435V56.7903C131.435 67.442 136.929 72.7676 147.915 72.7669H156.108V61.8054H150.057C148.071 61.8054 146.658 61.4186 145.821 60.6449C144.983 59.8713 144.564 58.6172 144.563 56.8826V31.9905H156.112Z" fill="#EF3B24"/>
</g>
<defs>
<clipPath id="clip0_807_467">
<rect width="300" height="109" fill="white"/>
</clipPath>
</defs>
</svg>
