<svg width="65" height="65" viewBox="0 0 65 65" fill="none" xmlns="http://www.w3.org/2000/svg">
<rect width="3.9967" height="4.01897" fill="#FCAF45"/>
<rect x="61" y="61" width="3.99528" height="4" fill="#FCAF45"/>
<path fill-rule="evenodd" clip-rule="evenodd" d="M0 1.49295e-05L1.49295e-05 0H26L26 1.22321e-05L64.9952 38.9952V64.9952L0 1.49295e-05Z" fill="#FFD600"/>
<path d="M32.2943 16.7198C32.6846 16.6576 33.0919 16.6972 33.5162 16.8386C33.9517 16.9801 34.3449 17.2261 34.6956 17.5768C35.1086 17.9898 35.3829 18.4621 35.5187 18.9939C35.6544 19.5256 35.6346 20.0715 35.4593 20.6316C35.2896 21.1859 34.97 21.6979 34.5004 22.1674C34.0309 22.6369 33.5133 22.9622 32.9476 23.1432C32.3876 23.3186 31.8332 23.3412 31.2845 23.2111C30.7471 23.081 30.2748 22.8123 29.8675 22.405C29.5054 22.0429 29.2537 21.6498 29.1123 21.2255C28.9765 20.8069 28.9369 20.4053 28.9935 20.0206L28.3147 20.6994L27.3474 19.7321L33.6265 13.453L34.5938 14.4203L32.2943 16.7198ZM33.5162 21.1831C33.8386 20.8607 34.0479 20.5156 34.1441 20.1479C34.2515 19.7802 34.2544 19.4266 34.1526 19.0872C34.062 18.7478 33.8923 18.4537 33.6434 18.2048C33.4002 17.9615 33.106 17.7918 32.761 17.6956C32.4216 17.6051 32.0652 17.6108 31.6918 17.7126C31.3241 17.8201 30.9791 18.0351 30.6566 18.3575C30.3342 18.6799 30.1164 19.0278 30.0033 19.4012C29.9014 19.7745 29.8958 20.1309 29.9863 20.4703C30.0824 20.8154 30.2522 21.1096 30.4954 21.3528C30.7443 21.6017 31.0385 21.7714 31.3779 21.8619C31.7286 21.9524 32.0906 21.9411 32.464 21.828C32.843 21.7205 33.1937 21.5055 33.5162 21.1831Z" fill="black"/>
<path d="M39.8354 27.3157C39.6601 27.4911 39.4904 27.6381 39.3263 27.7569L35.754 24.1846C35.4089 24.5863 35.2477 25.0247 35.2704 25.4998C35.293 25.975 35.4853 26.3936 35.8474 26.7557C36.3678 27.2761 36.9533 27.426 37.6038 27.2054L38.6475 28.2491C38.0762 28.5376 37.4652 28.6337 36.8147 28.5376C36.1755 28.4414 35.5815 28.119 35.0328 27.5703C34.5859 27.1234 34.2832 26.6227 34.1248 26.0684C33.9778 25.514 33.9834 24.954 34.1418 24.3883C34.3115 23.8226 34.6368 23.2993 35.1176 22.8185C35.5985 22.3377 36.1161 22.0124 36.6704 21.8427C37.2361 21.673 37.7933 21.6645 38.342 21.8172C38.8964 21.9756 39.4027 22.2839 39.8609 22.7421C40.3021 23.1834 40.5991 23.6727 40.7518 24.2101C40.9046 24.7475 40.9018 25.2877 40.7434 25.8308C40.5906 26.3682 40.288 26.8632 39.8354 27.3157ZM39.1312 26.0005C39.4819 25.6384 39.6403 25.2255 39.6063 24.7616C39.5724 24.2978 39.3716 23.882 39.0039 23.5143C38.6701 23.1805 38.277 23.0023 37.8244 22.9797C37.3775 22.9514 36.9504 23.0957 36.5431 23.4125L39.1312 26.0005Z" fill="black"/>
<path d="M43.3499 27.9622L40.7619 30.5502C40.5866 30.7255 40.4989 30.8924 40.4989 31.0508C40.5102 31.2092 40.6148 31.3874 40.8128 31.5854L41.4068 32.1794L40.6007 32.9855L39.837 32.2218C39.4015 31.7862 39.1695 31.3506 39.1412 30.915C39.113 30.4795 39.3279 30.0326 39.7861 29.5744L42.3741 26.9864L41.8226 26.4348L42.6117 25.6457L43.1633 26.1972L44.3257 25.0347L45.3015 26.0106L44.1391 27.173L45.2761 28.3101L44.487 29.0992L43.3499 27.9622Z" fill="black"/>
<path d="M43.5287 31.1957C43.9982 30.7261 44.5102 30.4065 45.0646 30.2368C45.6246 30.0728 46.1705 30.0586 46.7022 30.1944C47.2453 30.3302 47.7205 30.6017 48.1277 31.009C48.4954 31.3767 48.7415 31.7698 48.866 32.1884C49.0017 32.607 49.0442 33.0059 48.9932 33.3849L49.6721 32.706L50.6479 33.6818L45.9725 38.3572L44.9967 37.3814L45.6925 36.6856C45.3078 36.7422 44.9005 36.7026 44.4706 36.5668C44.0407 36.4311 43.6447 36.1822 43.2826 35.8201C42.881 35.4185 42.6151 34.949 42.485 34.4116C42.3606 33.8685 42.3832 33.3142 42.5529 32.7485C42.7339 32.1828 43.0592 31.6652 43.5287 31.1957ZM47.3386 35.0395C47.6611 34.7171 47.8732 34.3692 47.975 33.9958C48.0825 33.6281 48.091 33.2746 48.0005 32.9351C47.91 32.5957 47.7402 32.3016 47.4913 32.0527C47.2424 31.8038 46.9483 31.6341 46.6089 31.5436C46.2751 31.4474 45.9216 31.4502 45.5482 31.552C45.1862 31.6539 44.8439 31.866 44.5215 32.1884C44.1991 32.5109 43.9813 32.8588 43.8681 33.2321C43.7607 33.6111 43.7493 33.9732 43.8342 34.3182C43.9304 34.6633 44.1001 34.9575 44.3433 35.2007C44.5922 35.4496 44.8864 35.6193 45.2258 35.7098C45.5652 35.8003 45.9187 35.7919 46.2864 35.6844C46.6654 35.5769 47.0162 35.3619 47.3386 35.0395Z" fill="black"/>
</svg>
