<svg width="300" height="164" viewBox="0 0 300 164" fill="none" xmlns="http://www.w3.org/2000/svg">
<g clip-path="url(#clip0_807_717)">
<path d="M2.61007 139.595C3.17007 139.275 3.81007 139.115 4.45007 139.135C5.14007 139.135 5.82007 139.305 6.41007 139.655C7.00007 140.005 7.48007 140.505 7.79007 141.105C8.13007 141.775 8.31007 142.525 8.29007 143.285C8.30007 144.045 8.13007 144.795 7.79007 145.465C7.48007 146.085 7.00007 146.595 6.41007 146.955C5.82007 147.315 5.14007 147.495 4.45007 147.495C3.81007 147.505 3.18007 147.345 2.62007 147.035C2.13007 146.755 1.71007 146.355 1.42007 145.865V151.195H0.0700684V139.275H1.42007V140.765C1.71007 140.275 2.12007 139.875 2.61007 139.605V139.595ZM6.55007 141.685C6.32007 141.255 5.98007 140.895 5.55007 140.655C5.13007 140.415 4.65007 140.295 4.17007 140.305C3.69007 140.305 3.22007 140.425 2.80007 140.665C2.37007 140.915 2.03007 141.275 1.80007 141.715C1.54007 142.205 1.41007 142.745 1.42007 143.295C1.41007 143.855 1.54007 144.405 1.80007 144.895C2.03007 145.335 2.38007 145.695 2.80007 145.945C3.22007 146.185 3.69007 146.305 4.17007 146.305C4.65007 146.305 5.13007 146.185 5.55007 145.945C5.98007 145.695 6.32007 145.335 6.55007 144.895C6.81007 144.395 6.94007 143.835 6.92007 143.275C6.93007 142.715 6.80007 142.175 6.55007 141.675V141.685Z" fill="#323232"/>
<path d="M11.8401 146.965C11.2301 146.625 10.7201 146.115 10.3901 145.495C10.0301 144.815 9.85007 144.055 9.86007 143.285C9.84007 142.525 10.0301 141.765 10.4001 141.095C10.7401 140.475 11.2501 139.975 11.8701 139.635C12.5101 139.305 13.2301 139.125 13.9501 139.125C14.6701 139.125 15.3901 139.305 16.0301 139.635C16.6501 139.965 17.1601 140.475 17.5101 141.085C17.8801 141.755 18.0701 142.515 18.0501 143.285C18.0701 144.055 17.8801 144.825 17.5001 145.495C17.1501 146.115 16.6201 146.625 16.0001 146.965C15.3501 147.315 14.6301 147.495 13.9001 147.485C13.1801 147.495 12.4701 147.315 11.8401 146.965ZM15.2601 145.965C15.6901 145.735 16.0501 145.375 16.2901 144.955C16.5501 144.505 16.6801 143.955 16.6801 143.305C16.6801 142.655 16.5501 142.105 16.3001 141.655C16.0701 141.225 15.7201 140.875 15.2901 140.645C14.8701 140.425 14.4101 140.315 13.9401 140.315C13.4701 140.315 13.0101 140.425 12.5901 140.645C12.1701 140.875 11.8201 141.235 11.6001 141.655C11.3501 142.105 11.2301 142.655 11.2301 143.305C11.2301 143.955 11.3501 144.525 11.5901 144.975C11.8101 145.405 12.1401 145.755 12.5601 145.985C12.9701 146.205 13.4201 146.325 13.8901 146.315C14.3701 146.315 14.8401 146.195 15.2501 145.965H15.2601Z" fill="#323232"/>
<path d="M30.9302 139.265L28.4002 147.355H27.0102L25.0602 140.935L23.1102 147.355H21.7202L19.1702 139.265H20.5502L22.4102 146.055L24.4202 139.265H25.8002L27.7702 146.065L29.6102 139.265H30.9402H30.9302Z" fill="#323232"/>
<path d="M39.9201 143.815H33.4401C33.4901 144.615 33.7601 145.235 34.2601 145.685C34.7601 146.135 35.4001 146.375 36.0701 146.355C36.6501 146.355 37.1401 146.225 37.5301 145.955C37.9101 145.695 38.2001 145.315 38.3501 144.865H39.8001C39.5901 145.625 39.1401 146.295 38.5001 146.765C37.8501 147.255 37.0401 147.495 36.0701 147.495C35.3501 147.505 34.6401 147.325 34.0101 146.975C33.4001 146.635 32.9101 146.125 32.5801 145.505C32.2201 144.825 32.0501 144.065 32.0601 143.295C32.0401 142.535 32.2201 141.775 32.5601 141.095C32.8801 140.485 33.3701 139.975 33.9801 139.645C34.6201 139.295 35.3401 139.125 36.0701 139.135C36.7801 139.125 37.4901 139.295 38.1101 139.645C38.6901 139.965 39.1701 140.445 39.4801 141.025C39.8101 141.635 39.9701 142.315 39.9601 143.005C39.9601 143.255 39.9501 143.525 39.9201 143.815ZM38.2301 141.405C38.0101 141.045 37.6901 140.745 37.3001 140.565C36.9001 140.365 36.4501 140.275 36.0101 140.275C35.3701 140.265 34.7401 140.495 34.2701 140.925C33.8001 141.355 33.5201 141.965 33.4501 142.725H38.5701C38.5801 142.265 38.4701 141.805 38.2301 141.405Z" fill="#323232"/>
<path d="M44.39 139.505C44.83 139.255 45.36 139.125 45.99 139.125V140.515H45.64C44.13 140.515 43.37 141.335 43.37 142.965V147.365H42.02V139.275H43.37V140.595C43.59 140.145 43.95 139.765 44.39 139.505Z" fill="#323232"/>
<path d="M55.2001 143.815H48.7201C48.7701 144.615 49.0401 145.235 49.5401 145.685C50.0401 146.135 50.6901 146.375 51.3501 146.355C51.9301 146.355 52.4201 146.225 52.8101 145.955C53.1901 145.685 53.4801 145.305 53.6301 144.865H55.0801C54.8701 145.625 54.4201 146.295 53.7801 146.765C53.1301 147.255 52.3201 147.495 51.3601 147.495C50.6401 147.505 49.9301 147.325 49.3001 146.975C48.6901 146.635 48.2001 146.125 47.8701 145.505C47.5201 144.825 47.3401 144.065 47.3501 143.295C47.3301 142.535 47.5101 141.775 47.8501 141.095C48.1701 140.485 48.6601 139.975 49.2701 139.645C49.9101 139.295 50.6301 139.125 51.3601 139.135C52.0701 139.125 52.7801 139.295 53.4001 139.645C53.9801 139.965 54.4501 140.445 54.7701 141.025C55.1001 141.635 55.2601 142.315 55.2501 143.005C55.2501 143.255 55.2301 143.535 55.2001 143.815ZM53.5101 141.405C53.2901 141.045 52.9701 140.745 52.5901 140.565C52.1901 140.365 51.7401 140.275 51.3001 140.275C50.6601 140.265 50.0301 140.495 49.5601 140.925C49.0901 141.355 48.8101 141.965 48.7401 142.725H53.8601C53.8701 142.265 53.7601 141.805 53.5201 141.405H53.5101Z" fill="#323232"/>
<path d="M57.3101 141.105C57.6301 140.505 58.1101 139.995 58.6901 139.655C59.2901 139.305 59.9701 139.125 60.6701 139.135C61.2901 139.135 61.8901 139.285 62.4401 139.575C62.9501 139.835 63.3801 140.235 63.6801 140.725V136.435H65.0401V147.355H63.6801V145.835C63.4001 146.335 62.9901 146.745 62.5001 147.025C61.9401 147.345 61.3101 147.505 60.6701 147.485C59.9801 147.485 59.3001 147.305 58.7101 146.945C58.1201 146.585 57.6401 146.065 57.3301 145.455C56.9901 144.775 56.8201 144.025 56.8301 143.275C56.8101 142.525 56.9901 141.775 57.3301 141.105H57.3101ZM63.3001 141.705C63.0701 141.275 62.7301 140.915 62.3001 140.665C61.8801 140.425 61.4001 140.305 60.9201 140.305C60.4401 140.305 59.9601 140.425 59.5401 140.655C59.1201 140.895 58.7701 141.255 58.5501 141.685C58.3001 142.175 58.1701 142.725 58.1801 143.285C58.1701 143.845 58.2901 144.405 58.5501 144.905C58.7801 145.335 59.1201 145.705 59.5401 145.955C59.9601 146.195 60.4301 146.315 60.9201 146.315C61.4001 146.315 61.8801 146.195 62.3001 145.955C62.7301 145.705 63.0701 145.345 63.3001 144.905C63.5601 144.405 63.6801 143.855 63.6701 143.305C63.6801 142.755 63.5501 142.205 63.3001 141.715V141.705Z" fill="#323232"/>
<path d="M74.4201 139.585C74.9801 139.275 75.6001 139.115 76.2401 139.125C76.9301 139.125 77.6101 139.295 78.2101 139.645C78.8001 139.995 79.2701 140.495 79.5901 141.095C79.9401 141.765 80.1101 142.515 80.0901 143.275C80.1001 144.035 79.9301 144.785 79.5901 145.455C79.2801 146.075 78.8001 146.585 78.2101 146.945C77.6201 147.305 76.9401 147.485 76.2501 147.485C75.6101 147.495 74.9701 147.345 74.4101 147.025C73.9101 146.745 73.5001 146.345 73.2201 145.855V147.345H71.8701V136.425H73.2201V140.765C73.5101 140.275 73.9301 139.865 74.4301 139.585H74.4201ZM78.3401 141.685C78.1101 141.255 77.7701 140.895 77.3401 140.655C76.9201 140.415 76.4401 140.295 75.9601 140.305C75.4801 140.305 75.0101 140.425 74.5901 140.665C74.1601 140.915 73.8201 141.275 73.5901 141.715C73.3301 142.205 73.2001 142.745 73.2101 143.295C73.2001 143.855 73.3301 144.405 73.5901 144.895C73.8201 145.335 74.1701 145.695 74.5901 145.945C75.0101 146.185 75.4801 146.305 75.9601 146.305C76.4501 146.305 76.9201 146.185 77.3401 145.945C77.7701 145.695 78.1101 145.335 78.3401 144.895C78.6001 144.395 78.7301 143.835 78.7101 143.275C78.7201 142.725 78.6001 142.175 78.3401 141.675V141.685Z" fill="#323232"/>
<path d="M89.1402 139.265L84.2602 151.165H82.8702L84.4702 147.265L81.2002 139.265H82.7002L85.2402 145.815L87.7602 139.265H89.1502H89.1402Z" fill="#323232"/>
<path d="M10.0201 108.605L5.97009 101.275H4.83009V108.605H0.0900879V89.1749H8.05009C9.59009 89.1749 10.9001 89.4449 11.9801 89.9749C13.0601 90.5049 13.8701 91.2449 14.4101 92.1749C14.9501 93.1249 15.2301 94.1949 15.2201 95.2849C15.2401 96.5249 14.8501 97.7349 14.1201 98.7449C13.3901 99.7549 12.3101 100.475 10.8901 100.905L15.3801 108.595H10.0301L10.0201 108.605ZM4.83009 97.9249H7.78009C8.65009 97.9249 9.31009 97.7149 9.73009 97.2849C10.1601 96.8649 10.3801 96.2649 10.3801 95.4849C10.3801 94.7049 10.1601 94.1649 9.73009 93.7449C9.30009 93.3249 8.64009 93.1049 7.78009 93.1049H4.83009V97.9249Z" fill="#323232"/>
<path d="M36.6799 92.9649V96.8949H43.0299V100.545H36.6799V104.805H43.8699V108.595H31.9399V89.1649H43.8699V92.9649H36.6799Z" fill="#323232"/>
<path d="M63.9199 108.105C62.8499 107.685 61.9099 106.975 61.2199 106.055C60.5399 105.145 60.1899 104.065 60.1499 102.785H65.1999C65.2799 103.505 65.5199 104.055 65.9499 104.435C66.3799 104.815 66.9299 105.005 67.6099 105.005C68.2899 105.005 68.8699 104.845 69.2799 104.515C69.6799 104.195 69.8899 103.745 69.8899 103.175C69.8899 102.955 69.8599 102.735 69.7699 102.535C69.6899 102.325 69.5599 102.145 69.3999 101.995C69.0499 101.665 68.6499 101.405 68.2099 101.225C67.5499 100.955 66.8799 100.725 66.1999 100.535C65.1399 100.225 64.1099 99.8349 63.1199 99.3749C62.3099 98.9749 61.6099 98.3849 61.0699 97.6549C60.4999 96.9049 60.2099 95.9149 60.2099 94.6949C60.2099 92.8849 60.8699 91.4649 62.1799 90.4449C63.4899 89.4249 65.1999 88.9049 67.3099 88.9049C69.4599 88.9049 71.1899 89.4149 72.4999 90.4449C73.8099 91.4649 74.5099 92.8949 74.6099 94.7249H69.4799C69.4399 94.0949 69.2099 93.6049 68.7899 93.2449C68.3599 92.8849 67.8199 92.7049 67.1499 92.7049C66.5799 92.7049 66.1099 92.8549 65.7599 93.1649C65.4099 93.4649 65.2299 93.9049 65.2299 94.4849C65.2299 95.1149 65.5299 95.6049 66.1199 95.9549C66.7099 96.3049 67.6399 96.6849 68.8899 97.0949C69.9399 97.4349 70.9599 97.8449 71.9499 98.3149C72.7499 98.7149 73.4499 99.2849 73.9899 100.005C74.5599 100.745 74.8499 101.695 74.8499 102.855C74.8599 103.915 74.5699 104.965 74.0099 105.875C73.4399 106.775 72.6199 107.495 71.5499 108.035C70.4799 108.565 69.2099 108.835 67.7499 108.835C66.3299 108.835 65.0499 108.605 63.9199 108.145V108.105Z" fill="#323232"/>
<path d="M96.27 92.9649V96.8949H102.62V100.545H96.27V104.805H103.46V108.595H91.53V89.1649H103.46V92.9649H96.27Z" fill="#323232"/>
<path d="M132.42 105.165H125.15L123.99 108.595H119.02L126.07 89.1649H131.56L138.61 108.595H133.59L132.42 105.165ZM131.2 101.515L128.79 94.4049L126.41 101.515H131.21H131.2Z" fill="#323232"/>
<path d="M164.44 108.605L160.39 101.275H159.25V108.605H154.51V89.1749H162.47C164.01 89.1749 165.32 89.4449 166.4 89.9749C167.48 90.5049 168.29 91.2449 168.83 92.1749C169.37 93.1249 169.65 94.1949 169.63 95.2849C169.65 96.5249 169.26 97.7349 168.53 98.7449C167.8 99.7549 166.72 100.475 165.3 100.905L169.79 108.595H164.44V108.605ZM159.25 97.9249H162.2C163.07 97.9249 163.73 97.7149 164.15 97.2849C164.58 96.8649 164.8 96.2649 164.8 95.4849C164.8 94.7049 164.58 94.1649 164.15 93.7449C163.72 93.3249 163.06 93.1049 162.2 93.1049H159.25V97.9249Z" fill="#323232"/>
<path d="M186.79 93.7249C187.59 92.2449 188.8 91.0249 190.27 90.2049C191.76 89.3649 193.45 88.9449 195.33 88.9449C197.64 88.9449 199.62 89.5549 201.27 90.7749C202.92 91.9949 204.02 93.6549 204.57 95.7549H199.35C199 94.9849 198.42 94.3349 197.7 93.9049C196.96 93.4749 196.13 93.2549 195.27 93.2649C193.81 93.2649 192.63 93.775 191.72 94.785C190.81 95.795 190.36 97.1549 190.36 98.8549C190.36 100.555 190.81 101.915 191.72 102.925C192.62 103.935 193.81 104.445 195.27 104.445C196.12 104.455 196.96 104.235 197.7 103.805C198.43 103.365 199 102.725 199.35 101.955H204.57C204.01 104.055 202.91 105.715 201.27 106.925C199.62 108.135 197.65 108.745 195.33 108.735C193.44 108.735 191.76 108.315 190.27 107.475C188.8 106.655 187.59 105.445 186.79 103.975C185.96 102.475 185.54 100.775 185.54 98.8549C185.54 96.9349 185.95 95.2249 186.79 93.7249Z" fill="#323232"/>
<path d="M238.12 89.1749V108.605H233.37V100.605H225.99V108.605H221.25V89.1749H225.99V96.7849H233.37V89.1749H238.12Z" fill="#323232"/>
<path d="M166.57 12.9949C165.05 11.5449 164.29 9.72495 164.29 7.56495C164.29 5.39495 165.05 3.58495 166.57 2.12495C168.09 0.674946 170 -0.0550537 172.3 -0.0550537C174.6 -0.0550537 176.51 0.674946 178.03 2.12495C179.55 3.58495 180.31 5.39495 180.31 7.56495C180.31 9.73495 179.55 11.5449 178.03 12.9949C176.51 14.4549 174.6 15.1749 172.3 15.1749C170 15.1749 168.1 14.4449 166.57 12.9949ZM178.72 21.3149V72.7649H165.68V21.3149H178.72Z" fill="#323232"/>
<path d="M232.44 26.3749C236.23 30.2449 238.12 35.6449 238.12 42.5849V72.7749H225.09V44.3549C225.09 40.2649 224.06 37.1249 222.01 34.9249C219.96 32.7249 217.17 31.6249 213.63 31.6349C210.03 31.6349 207.19 32.7349 205.11 34.9349C203.03 37.1349 201.99 40.2749 201.99 44.3649V72.7849H188.95V21.3149H201.99V27.7249C203.73 25.4949 205.95 23.7449 208.65 22.4749C211.35 21.2049 214.31 20.5749 217.54 20.5649C223.68 20.5649 228.65 22.5049 232.44 26.3749Z" fill="#323232"/>
<path d="M279.99 22.755C282.9 24.275 285.2 26.235 286.88 28.655V21.315H300.01V73.145C300.01 77.915 299.05 82.175 297.12 85.915C295.2 89.665 292.31 92.635 288.47 94.835C284.62 97.035 279.96 98.135 274.5 98.135C267.17 98.135 261.17 96.435 256.48 93.025C251.8 89.615 249.14 84.975 248.52 79.095H261.46C262.14 81.445 263.62 83.325 265.88 84.715C268.14 86.105 270.89 86.805 274.12 86.805C277.91 86.805 280.98 85.675 283.33 83.415C285.69 81.155 286.87 77.735 286.87 73.155V65.165C285.19 67.585 282.88 69.595 279.94 71.205C276.99 72.815 273.62 73.615 269.83 73.615C265.48 73.615 261.51 72.495 257.91 70.265C254.31 68.035 251.47 64.895 249.39 60.835C247.31 56.775 246.27 52.115 246.27 46.855C246.27 41.655 247.31 37.045 249.39 33.015C251.47 28.985 254.29 25.895 257.86 23.725C261.43 21.565 265.42 20.475 269.82 20.475C273.67 20.475 277.05 21.235 279.97 22.745L279.99 22.755ZM285.01 38.915C283.77 36.655 282.09 34.925 279.99 33.715C277.92 32.525 275.58 31.895 273.19 31.905C270.84 31.885 268.52 32.495 266.49 33.675C264.44 34.855 262.78 36.565 261.51 38.825C260.24 41.085 259.6 43.765 259.6 46.855C259.6 49.955 260.24 52.665 261.51 54.985C262.78 57.305 264.46 59.085 266.54 60.325C268.55 61.545 270.85 62.185 273.2 62.185C275.59 62.185 277.93 61.565 280 60.375C282.11 59.165 283.79 57.435 285.02 55.175C286.26 52.915 286.88 50.205 286.88 47.045C286.88 43.885 286.26 41.175 285.02 38.915H285.01Z" fill="#323232"/>
<path d="M19.61 22.895C22.31 21.345 25.4 20.575 28.87 20.575V34.235H25.43C21.33 34.235 18.25 35.195 16.16 37.115C14.08 39.035 13.04 42.375 13.04 47.145V72.785H0V21.3149H13.04V29.305C14.72 26.585 16.9 24.445 19.6 22.895H19.61Z" fill="#323232"/>
<path d="M45.54 70.305C41.57 68.105 38.45 64.995 36.19 60.975C33.93 56.945 32.79 52.305 32.79 47.035C32.79 41.775 33.95 37.125 36.28 33.105C38.61 29.075 41.79 25.965 45.82 23.775C49.85 21.575 54.35 20.475 59.32 20.475C64.29 20.475 68.79 21.575 72.82 23.775C76.85 25.975 80.04 29.085 82.36 33.105C84.69 37.125 85.85 41.775 85.85 47.035C85.85 52.305 84.66 56.945 82.27 60.965C79.88 64.985 76.65 68.095 72.59 70.295C68.52 72.495 63.98 73.595 58.95 73.595C53.98 73.595 49.51 72.495 45.54 70.305ZM65.61 60.555C67.69 59.405 69.35 57.695 70.59 55.395C71.83 53.105 72.46 50.315 72.45 47.035C72.45 42.145 71.16 38.385 68.59 35.745C66.01 33.115 62.86 31.795 59.14 31.795C55.42 31.795 52.3 33.115 49.79 35.745C47.28 38.375 46.02 42.135 46.02 47.035C46.02 51.925 47.25 55.685 49.7 58.325C52.15 60.955 55.24 62.275 58.97 62.275C61.3 62.275 63.59 61.685 65.62 60.555H65.61Z" fill="#323232"/>
<path d="M156.12 31.995V21.315H144.58V8.58496H131.45V21.315H108.46V8.58496H95.3299V21.315H89.1799V31.995H95.3299V56.795C95.3299 67.445 100.82 72.775 111.81 72.775H120V61.815H113.95C111.96 61.815 110.55 61.425 109.71 60.655C108.87 59.885 108.45 58.625 108.45 56.895V32.005H131.44V56.805C131.44 67.455 136.93 72.785 147.92 72.785H156.11V61.825H150.06C148.07 61.825 146.66 61.435 145.82 60.665C144.98 59.895 144.56 58.635 144.56 56.905V32.015H156.11L156.12 31.995Z" fill="#323232"/>
<path fill-rule="evenodd" clip-rule="evenodd" d="M170.79 126.345C171.37 126.925 171.83 127.605 172.14 128.365V128.355C172.46 129.115 172.63 129.915 172.63 130.745V149.905C172.63 151.575 171.98 153.135 170.8 154.315C169.78 155.335 168.43 155.975 167 156.115C166.8 156.135 166.59 156.155 166.39 156.155H151.62C151.53 156.265 151.43 156.375 151.29 156.485C151.478 156.768 151.661 157.038 151.823 157.279C151.954 157.473 152.072 157.648 152.17 157.795C153.05 159.115 152.73 160.765 151.42 161.655L149.68 162.825L149.38 163.025C148.95 163.315 148.52 163.475 148.04 163.525C147.56 163.575 146.36 163.545 145.5 162.275L144.63 160.995C144.33 161.145 144.01 161.245 143.68 161.275C142.96 161.345 142.25 161.125 141.69 160.645C141.12 160.165 140.77 159.475 140.7 158.745L140.44 156.165L102.75 156.185C101.08 156.185 99.51 155.545 98.33 154.365C97.15 153.185 96.49 151.625 96.49 149.955V130.795C96.49 129.135 97.14 127.565 98.32 126.385C99.34 125.365 100.69 124.725 102.12 124.585C102.32 124.565 102.53 124.555 102.73 124.555L166.37 124.525C167.2 124.525 168 124.685 168.76 124.995C169.52 125.305 170.21 125.765 170.79 126.345ZM113.45 131.395L113.16 131.275H113.14C113.04 131.225 112.94 131.195 112.84 131.175C112.44 131.095 112.08 131.195 111.81 131.505C111.64 131.715 111.53 131.975 111.51 132.245C111.46 132.625 111.5 133.005 111.61 133.365C111.73 133.805 112 134.185 112.37 134.445C112.74 134.705 113.19 134.835 113.65 134.795C114.38 134.755 114.98 134.455 115.31 133.835C115.48 133.505 115.58 133.145 115.61 132.775C115.64 132.485 115.61 132.185 115.53 131.905C115.27 131.115 114.38 130.865 113.75 131.405C113.75 131.405 113.73 131.415 113.72 131.425H113.71C113.724 131.381 113.736 131.339 113.748 131.297L113.748 131.297C113.768 131.225 113.788 131.155 113.82 131.085C113.93 130.825 114.11 130.645 114.42 130.635H114.42C114.44 130.635 114.46 130.635 114.47 130.625C114.475 130.62 114.482 130.615 114.49 130.61C114.497 130.605 114.505 130.6 114.51 130.595C114.52 130.585 114.53 130.565 114.54 130.545V130.495V130.495C114.54 130.475 114.54 130.455 114.53 130.445C114.53 130.43 114.518 130.42 114.508 130.412C114.505 130.41 114.502 130.407 114.5 130.405C114.49 130.395 114.47 130.385 114.45 130.375L114.45 130.375H114.39C114.21 130.375 114.03 130.435 113.88 130.545L113.83 130.575V130.545C113.8 130.425 113.76 130.315 113.69 130.215C113.62 130.115 113.53 130.035 113.43 129.965C113.33 129.895 113.21 129.855 113.1 129.835C112.98 129.815 112.86 129.815 112.74 129.835C112.7 129.835 112.67 129.855 112.65 129.875C112.623 129.893 112.612 129.927 112.603 129.955L112.6 129.965C112.55 130.175 112.58 130.395 112.68 130.585C112.78 130.775 112.94 130.935 113.14 131.015C113.26 131.065 113.39 131.085 113.51 131.085C113.49 131.125 113.48 131.175 113.47 131.225L113.47 131.225C113.47 131.268 113.463 131.303 113.454 131.344L113.45 131.365V131.395ZM137.3 135.785H140.99V137.935L138.27 141.605L140.99 145.125L141 147.335H137.26L134.41 142.725V147.335H129.86L129.85 132.185H134.41V140.105L137.3 135.785ZM155.05 139.105C155.89 139.535 156.59 140.195 157.07 141.005V140.995C157.55 141.815 157.8 142.785 157.8 143.885C157.8 144.985 157.55 145.955 157.07 146.775C156.6 147.595 155.89 148.255 155.05 148.685C154.15 149.115 153.17 149.345 152.18 149.345C151.19 149.345 150.21 149.115 149.31 148.685C148.47 148.265 147.77 147.605 147.29 146.785C146.81 145.965 146.56 144.995 146.56 143.895C146.56 142.795 146.81 141.825 147.29 141.005C147.77 140.195 148.47 139.535 149.31 139.105C150.2 138.675 151.19 138.445 152.18 138.445C153.17 138.445 154.15 138.675 155.05 139.105ZM154.45 144.115C154.54 144.125 154.57 144.095 154.57 144.005L154.62 143.985V143.945L154.615 143.92C154.596 143.837 154.576 143.747 154.54 143.665C154.44 143.465 154.37 143.255 154.32 143.035C154.3 142.905 154.23 142.775 154.13 142.685C154.08 142.635 154.02 142.585 153.96 142.535C153.9 142.495 153.86 142.435 153.83 142.365C153.8 142.305 153.8 142.225 153.8 142.155C153.807 142.085 153.824 142.011 153.84 141.938C153.847 141.907 153.854 141.875 153.86 141.845C153.89 141.725 153.88 141.605 153.84 141.485C153.83 141.455 153.82 141.435 153.8 141.415C153.78 141.395 153.76 141.375 153.73 141.375H153.65C153.62 141.375 153.59 141.385 153.57 141.405C153.536 141.419 153.502 141.437 153.471 141.454C153.463 141.458 153.455 141.462 153.447 141.466C153.441 141.469 153.435 141.472 153.43 141.475C153.42 141.48 153.407 141.482 153.395 141.485C153.382 141.487 153.37 141.49 153.36 141.495C153.346 141.502 153.328 141.499 153.311 141.497C153.309 141.497 153.307 141.496 153.305 141.496C153.3 141.495 153.295 141.495 153.29 141.495C153.26 141.485 153.24 141.475 153.22 141.455C153.215 141.445 153.207 141.435 153.2 141.425C153.192 141.415 153.185 141.405 153.18 141.395C153.15 141.335 153.12 141.285 153.09 141.235C153.08 141.205 153.06 141.185 153.04 141.165L153.04 141.165C153.034 141.161 153.028 141.157 153.022 141.153C153.001 141.137 152.984 141.125 152.96 141.125H152.88C152.85 141.125 152.82 141.135 152.8 141.155C152.756 141.169 152.718 141.195 152.681 141.219C152.667 141.228 152.654 141.237 152.64 141.245C152.6 141.275 152.54 141.295 152.48 141.295C152.42 141.295 152.37 141.275 152.32 141.235C152.27 141.195 152.22 141.155 152.18 141.125C152.12 141.075 152.04 141.045 151.96 141.045C151.86 141.045 151.76 141.055 151.66 141.075C151.37 141.145 151.17 141.315 151.14 141.635C151.13 141.715 151.12 141.795 151.09 141.875C151.08 141.915 151.06 141.955 151.03 141.985C151 142.015 150.96 142.045 150.92 142.055C150.85 142.075 150.79 142.105 150.74 142.145C150.67 142.195 150.6 142.235 150.53 142.265C150.44 142.295 150.35 142.335 150.27 142.395C150.08 142.545 150.03 142.735 150.2 142.925C150.26 142.985 150.3 143.065 150.3 143.145C150.31 143.255 150.29 143.365 150.26 143.465C150.245 143.51 150.228 143.554 150.211 143.599C150.161 143.732 150.11 143.865 150.11 144.015C150.09 144.165 150.04 144.305 149.97 144.435C149.91 144.555 149.87 144.685 149.85 144.825C149.85 144.885 149.87 144.935 149.9 144.975C149.94 145.015 149.99 145.045 150.04 145.045C150.061 145.052 150.082 145.049 150.099 145.047C150.107 145.046 150.114 145.045 150.12 145.045C150.15 145.035 150.17 145.025 150.19 145.005L150.19 145.005C150.21 144.985 150.23 144.965 150.23 144.935C150.24 144.905 150.24 144.885 150.24 144.855V144.855C150.23 144.795 150.22 144.735 150.22 144.675C150.213 144.655 150.216 144.63 150.218 144.606V144.606V144.606C150.219 144.595 150.22 144.585 150.22 144.575C150.23 144.545 150.25 144.515 150.27 144.485C150.3 144.455 150.33 144.435 150.36 144.425C150.39 144.405 150.42 144.405 150.46 144.405H150.46C150.53 144.415 150.6 144.435 150.66 144.465C150.69 144.475 150.71 144.495 150.73 144.525C150.733 144.535 150.738 144.545 150.742 144.555C150.751 144.575 150.76 144.595 150.76 144.615C150.77 144.675 150.77 144.735 150.76 144.795L150.76 144.795C150.72 144.955 150.68 145.115 150.62 145.275C150.55 145.445 150.54 145.615 150.55 145.795C150.56 145.895 150.6 145.975 150.67 146.045C150.72 146.105 150.76 146.095 150.79 146.025V146.005C150.79 145.992 150.799 145.978 150.808 145.965C150.81 145.962 150.812 145.959 150.813 145.956C150.816 145.953 150.818 145.949 150.82 145.945C150.83 145.925 150.85 145.905 150.87 145.905H150.93C150.95 145.905 150.97 145.915 150.99 145.925C151.06 145.955 151.11 146.005 151.14 146.075C151.17 146.135 151.18 146.215 151.16 146.285C151.14 146.375 151.12 146.465 151.11 146.565C151.1 146.635 151.12 146.705 151.16 146.765C151.163 146.768 151.167 146.773 151.17 146.777C151.177 146.786 151.183 146.795 151.19 146.795C151.2 146.815 151.21 146.815 151.23 146.815H151.23H151.28C151.285 146.815 151.292 146.81 151.3 146.805C151.307 146.8 151.315 146.795 151.32 146.795C151.36 146.775 151.39 146.735 151.4 146.695C151.4 146.688 151.4 146.68 151.401 146.672L151.402 146.654V146.654V146.654C151.404 146.624 151.407 146.592 151.4 146.565C151.39 146.485 151.37 146.405 151.35 146.326L151.35 146.326L151.35 146.325L151.35 146.325L151.35 146.325L151.35 146.325L151.35 146.325L151.35 146.325L151.35 146.325L151.35 146.325C151.32 146.255 151.33 146.175 151.35 146.095C151.38 146.015 151.42 145.945 151.48 145.895C151.52 145.855 151.57 145.825 151.62 145.825C151.67 145.825 151.71 145.835 151.75 145.865C151.78 145.885 151.82 145.925 151.82 145.975C151.86 146.095 151.92 146.205 151.99 146.305C152.07 146.415 152.12 146.545 152.14 146.675C152.15 146.805 152.13 146.945 152.08 147.065C152.03 147.175 151.99 147.285 151.97 147.395C151.95 147.435 151.96 147.485 151.97 147.535C151.99 147.585 152.01 147.615 152.05 147.655C152.09 147.695 152.13 147.715 152.18 147.725C152.22 147.745 152.27 147.735 152.32 147.725C152.35 147.715 152.38 147.695 152.41 147.675C152.44 147.655 152.46 147.625 152.48 147.595C152.5 147.565 152.51 147.525 152.51 147.495C152.52 147.465 152.51 147.425 152.5 147.395C152.478 147.313 152.45 147.231 152.42 147.145C152.415 147.13 152.41 147.115 152.405 147.1C152.4 147.085 152.395 147.07 152.39 147.055C152.32 146.875 152.32 146.665 152.39 146.485L152.39 146.485C152.49 146.255 152.59 146.025 152.71 145.805C152.73 145.765 152.76 145.735 152.79 145.705C152.8 145.685 152.81 145.685 152.83 145.685H152.83C152.833 145.685 152.837 145.685 152.84 145.686C152.848 145.687 152.856 145.689 152.863 145.691C152.867 145.692 152.871 145.694 152.874 145.694C152.877 145.695 152.878 145.695 152.88 145.695C152.89 145.7 152.897 145.707 152.905 145.715C152.912 145.722 152.92 145.73 152.93 145.735C153.04 145.825 153.12 145.935 153.18 146.065C153.24 146.185 153.27 146.325 153.27 146.465C153.27 146.595 153.24 146.725 153.2 146.855C153.18 146.925 153.18 147.005 153.2 147.075C153.22 147.145 153.27 147.205 153.33 147.245L153.335 147.248L153.343 147.252L153.35 147.257L153.35 147.257C153.363 147.266 153.377 147.275 153.39 147.275H153.46C153.49 147.275 153.51 147.265 153.53 147.255C153.55 147.245 153.57 147.225 153.58 147.205C153.6 147.185 153.62 147.155 153.62 147.125V147.035C153.59 146.945 153.56 146.865 153.52 146.785C153.44 146.585 153.41 146.355 153.44 146.135C153.443 146.113 153.446 146.09 153.449 146.068L153.456 146.022L153.456 146.022C153.473 145.91 153.49 145.797 153.49 145.685C153.5 145.575 153.52 145.465 153.56 145.355C153.58 145.305 153.61 145.265 153.66 145.235C153.71 145.205 153.77 145.205 153.82 145.205C153.86 145.205 153.9 145.225 153.93 145.255C153.96 145.285 153.99 145.325 153.99 145.365C154 145.445 154.01 145.535 154 145.625C153.98 145.695 153.98 145.755 153.98 145.825C153.99 145.855 154 145.875 154.02 145.895C154.04 145.915 154.06 145.935 154.09 145.935C154.12 145.945 154.15 145.945 154.18 145.935C154.21 145.925 154.23 145.915 154.25 145.885C154.29 145.825 154.3 145.755 154.29 145.685C154.27 145.605 154.23 145.525 154.19 145.455C154.14 145.375 154.11 145.295 154.09 145.205C154.07 145.075 154.07 144.935 154.07 144.795C154.07 144.745 154.09 144.695 154.12 144.655C154.17 144.595 154.2 144.595 154.26 144.645L154.35 144.715H154.38C154.39 144.705 154.39 144.695 154.38 144.675C154.378 144.672 154.376 144.668 154.374 144.665L154.368 144.655C154.359 144.642 154.35 144.628 154.35 144.615C154.345 144.605 154.34 144.595 154.336 144.585C154.332 144.577 154.329 144.568 154.325 144.56C154.317 144.542 154.31 144.525 154.3 144.505C154.29 144.475 154.29 144.475 154.33 144.475C154.327 144.472 154.324 144.471 154.321 144.469C154.32 144.468 154.319 144.468 154.318 144.467C154.309 144.463 154.3 144.458 154.3 144.445C154.3 144.345 154.31 144.255 154.32 144.165L154.32 144.165C154.33 144.145 154.34 144.125 154.35 144.125C154.37 144.115 154.38 144.115 154.4 144.115H154.45ZM160.9 147.255H162.63V143.385H161.54C161.24 143.385 161.02 143.325 160.89 143.205C160.76 143.085 160.7 142.885 160.7 142.615V139.495H162.59V135.705H160.7V132.925H156.14V135.715H154.7V138.255C154.92 138.335 155.13 138.425 155.34 138.535C156.29 139.015 157.09 139.765 157.63 140.685C158.17 141.605 158.45 142.685 158.45 143.895C158.46 144.805 158.28 145.705 157.92 146.535C158.68 147.015 159.67 147.265 160.91 147.265L160.9 147.255ZM150.13 138.095C149.74 138.205 149.36 138.355 149 138.535V138.525C148.05 139.005 147.26 139.755 146.72 140.675C146.17 141.595 145.9 142.675 145.9 143.885C145.89 144.705 146.04 145.515 146.34 146.285V147.305H141.78V135.765H146.33V137.895C146.77 137.245 147.35 136.695 148.03 136.285C148.66 135.895 149.39 135.685 150.13 135.685V138.095ZM115.83 135.805H111.28V143.025H115.83V135.805ZM129.01 140.645V147.335H124.47V141.215C124.47 140.665 124.32 140.235 124.03 139.915C123.74 139.595 123.34 139.435 122.85 139.435C122.36 139.435 121.95 139.595 121.66 139.915C121.37 140.235 121.23 140.665 121.23 141.215V147.335H116.67V135.795H121.23V137.555C121.59 137.005 122.08 136.545 122.66 136.225C123.25 135.885 123.96 135.715 124.78 135.715C126.11 135.715 127.14 136.155 127.89 137.045C128.64 137.925 129.01 139.135 129.01 140.645ZM105.86 147.325L105.85 132.195H110.41V143.885H115.84V147.325H105.86ZM149.66 154.565C149.74 154.455 149.66 154.325 149.55 154.265C149.55 154.265 142.91 150.775 142.77 150.685C142.69 150.635 142.61 150.605 142.51 150.655C142.411 150.714 142.42 150.803 142.43 150.902L142.43 150.905L143.21 158.495C143.21 158.625 143.35 158.825 143.5 158.735L145.32 157.505C145.687 158.045 146.33 159 146.878 159.813L146.879 159.814L146.891 159.833C147.159 160.23 147.403 160.593 147.58 160.855C147.71 161.045 147.78 161.055 147.97 160.925C148.49 160.575 149.48 159.905 150.01 159.545C150.18 159.425 150.2 159.355 150.08 159.185C149.805 158.78 149.375 158.14 148.945 157.499C148.515 156.86 148.085 156.22 147.81 155.815C147.833 155.792 148.103 155.614 148.43 155.397L148.431 155.397L148.431 155.397C148.962 155.046 149.645 154.594 149.67 154.545L149.66 154.565Z" fill="#323232"/>
</g>
<defs>
<clipPath id="clip0_807_717">
<rect width="300" height="164" fill="white"/>
</clipPath>
</defs>
</svg>
